SplineFontDB: 3.2
FontName: ComicSansMS-Bold
FullName: Comic Sans MS Bold
FamilyName: Comic Sans MS
Weight: Bold
Copyright: Copyright (c) 1995 Microsoft Corporation. All rights reserved.
Version: 1.20
ItalicAngle: 0
UnderlinePosition: -359
UnderlineWidth: 175
Ascent: 1638
Descent: 410
InvalidEm: 0
sfntRevision: 0x00010000
LayerCount: 2
Layer: 0 1 "Hinten" 1
Layer: 1 1 "Vorne" 0
XUID: [1021 874 173861057 14434]
StyleMap: 0x0020
FSType: 0
OS2Version: 1
OS2_WeightWidthSlopeOnly: 0
OS2_UseTypoMetrics: 0
CreationTime: 175673541034458
ModificationTime: 1682489996
PfmFamily: 65
TTFWeight: 700
TTFWidth: 5
LineGap: 0
VLineGap: 0
Panose: 3 15 9 2 3 3 2 2 2 4
OS2TypoAscent: 1638
OS2TypoAOffset: 0
OS2TypoDescent: -564
OS2TypoDOffset: 0
OS2TypoLinegap: 0
OS2WinAscent: 2257
OS2WinAOffset: 0
OS2WinDescent: 597
OS2WinDOffset: 0
HheadAscent: 2257
HheadAOffset: 0
HheadDescent: -597
HheadDOffset: 0
OS2SubXSize: 1434
OS2SubYSize: 1331
OS2SubXOff: 0
OS2SubYOff: 293
OS2SupXSize: 1434
OS2SupYSize: 1331
OS2SupXOff: 0
OS2SupYOff: 928
OS2StrikeYSize: 175
OS2StrikeYPos: 630
OS2FamilyClass: 2568
OS2Vendor: 'MS  '
OS2CodePages: 20000001.00000000
OS2UnicodeRanges: 00000003.00000000.00000000.00000000
DEI: 91125
TtTable: prep
NPUSHB
 89
 112
 49
 128
 49
 2
 47
 40
 63
 40
 79
 40
 95
 40
 111
 40
 5
 47
 36
 47
 42
 2
 18
 17
 8
 64
 2
 198
 22
 1
 127
 36
 143
 36
 159
 36
 3
 35
 14
 69
 34
 12
 69
 33
 10
 69
 32
 8
 69
 31
 6
 69
 30
 4
 69
 29
 2
 69
 28
 0
 69
 26
 8
 24
 8
 22
 8
 20
 8
 18
 8
 16
 8
 14
 8
 12
 8
 10
 8
 8
 8
 6
 8
 4
 8
 2
 8
 0
 8
 0
MPPEM
PUSHB_1
 192
MUL
SVTCA[y-axis]
MPPEM
DIV
DUP
PUSHB_1
 246
GTEQ
SWAP
PUSHW_1
 266
LTEQ
AND
PUSHB_1
 5
SWAP
WS
SVTCA[x-axis]
PUSHB_1
 18
MPPEM
SVTCA[y-axis]
MPPEM
EQ
WS
RTG
PUSHW_2
 1
 511
SCANCTRL
SCANTYPE
SZPS
CALL
CALL
CALL
CALL
CALL
CALL
CALL
CALL
CALL
CALL
CALL
CALL
CALL
CALL
RTG
CALL
CALL
CALL
CALL
CALL
CALL
CALL
CALL
RTG
DELTAC1
PUSHB_2
 1
 1
RCVT
ROUND[Black]
DUP
PUSHB_1
 0
EQ
IF
PUSHB_1
 64
ADD
EIF
WCVTP
RTG
WS
SVTCA[x-axis]

StartChar: exclam
Encoding: 33 33 1
Width: 487
GlyphClass: 1
Flags: W
LayerCount: 2
Fore
SplineSet
242 297 m 256,0,1
 186 297 186 297 149.5 332 c 128,-1,2
 113 367 113 367 113 420 c 0,3,4
 113 459 113 459 110.5 536.5 c 128,-1,5
 108 614 108 614 108 653 c 0,6,7
 108 791 108 791 110.5 1067 c 128,-1,8
 113 1343 113 1343 113 1481 c 0,9,10
 113 1534 113 1534 150 1569.5 c 128,-1,11
 187 1605 187 1605 242 1605 c 256,12,13
 297 1605 297 1605 334 1569.5 c 128,-1,14
 371 1534 371 1534 371 1481 c 2,15,-1
 371 420 l 2,16,17
 371 367 371 367 334.5 332 c 128,-1,18
 298 297 298 297 242 297 c 256,0,1
239 -66 m 0,19,20
 179 -66 179 -66 127 -2 c 0,21,22
 80 57 80 57 80 108 c 0,23,24
 80 160 80 160 121 195 c 128,-1,25
 162 230 162 230 214 230 c 0,26,27
 274 230 274 230 325 166 c 0,28,29
 372 107 372 107 372 57 c 0,30,31
 372 6 372 6 331.5 -30 c 128,-1,32
 291 -66 291 -66 239 -66 c 0,19,20
EndSplineSet
EndChar

StartChar: quotedbl
Encoding: 34 34 2
Width: 896
GlyphClass: 1
Flags: W
LayerCount: 2
Fore
SplineSet
801 1391 m 2,0,-1
 792 1043 l 2,1,2
 791 994 791 994 755 961 c 128,-1,3
 719 928 719 928 663 928 c 0,4,5
 608 928 608 928 571 961 c 0,6,7
 533 993 533 993 534 1043 c 0,8,9
 533 1183 533 1183 545 1449 c 0,10,11
 552 1517 552 1517 585 1550.5 c 128,-1,12
 618 1584 618 1584 678 1584 c 0,13,14
 733 1584 733 1584 770 1551 c 128,-1,15
 807 1518 807 1518 807 1469 c 0,16,17
 807 1455 807 1455 804 1429 c 128,-1,18
 801 1403 801 1403 801 1391 c 2,0,-1
212 932 m 0,19,20
 76 932 76 932 76 1120 c 0,21,22
 76 1179 76 1179 79 1296.5 c 128,-1,23
 82 1414 82 1414 82 1473 c 0,24,25
 82 1522 82 1522 119 1555 c 128,-1,26
 156 1588 156 1588 211 1588 c 256,27,28
 266 1588 266 1588 303 1555 c 128,-1,29
 340 1522 340 1522 340 1473 c 0,30,31
 340 1416 340 1416 337 1302.5 c 128,-1,32
 334 1189 334 1189 334 1132 c 0,33,34
 334 1117 334 1117 339 1087.5 c 128,-1,35
 344 1058 344 1058 344 1044 c 0,36,37
 344 995 344 995 304 963.5 c 128,-1,38
 264 932 264 932 212 932 c 0,19,20
EndSplineSet
EndChar

StartChar: numbersign
Encoding: 35 35 3
Width: 1726
GlyphClass: 1
Flags: W
LayerCount: 2
Fore
SplineSet
310 629 m 1,0,1
 408 872 408 872 458 1015 c 1,2,3
 413 1014 413 1014 339 1015 c 0,4,5
 248 1017 248 1017 220 1017 c 0,6,7
 164 1017 164 1017 126.5 1051 c 128,-1,8
 89 1085 89 1085 89 1139 c 0,9,10
 89 1249 89 1249 212 1262 c 1,11,12
 321 1265 321 1265 538 1272 c 1,13,-1
 604 1458 l 1,14,15
 660 1583 660 1583 721 1583 c 0,16,17
 853 1583 853 1583 853 1463 c 0,18,19
 853 1408 853 1408 807 1273 c 1,20,-1
 1164 1273 l 1,21,22
 1190 1374 1190 1374 1234 1511 c 0,23,24
 1266 1611 1266 1611 1357 1611 c 0,25,26
 1409 1611 1409 1611 1449.5 1577 c 128,-1,27
 1490 1543 1490 1543 1490 1491 c 0,28,29
 1490 1461 1490 1461 1432 1275 c 1,30,31
 1494 1278 1494 1278 1522 1278 c 0,32,33
 1701 1278 1701 1278 1701 1152 c 0,34,35
 1701 1059 1701 1059 1613 1031 c 0,36,37
 1569 1017 1569 1017 1450 1017 c 0,38,39
 1437 1017 1437 1017 1407 1018 c 2,40,-1
 1364 1018 l 1,41,42
 1321 890 1321 890 1235 629 c 1,43,-1
 1376 629 l 2,44,45
 1581 629 1581 629 1581 496 c 0,46,47
 1581 444 1581 444 1544 413 c 128,-1,48
 1507 382 1507 382 1454 382 c 0,49,50
 1430 382 1430 382 1308 381 c 0,51,52
 1220 380 1220 380 1163 381 c 1,53,54
 1136 294 1136 294 1084 98 c 0,55,56
 1056 -22 1056 -22 929 -22 c 0,57,58
 818 -22 818 -22 818 83 c 0,59,60
 818 132 818 132 896 382 c 1,61,-1
 487 382 l 1,62,63
 401 177 401 177 361 56 c 0,64,65
 335 -23 335 -23 244 -23 c 0,66,67
 193 -23 193 -23 152 11 c 128,-1,68
 111 45 111 45 111 97 c 0,69,70
 111 111 111 111 214 382 c 1,71,-1
 99 382 l 2,72,73
 43 382 43 382 6 428 c 0,74,75
 -27 469 -27 469 -27 518 c 0,76,77
 -27 619 -27 619 85 629 c 0,78,79
 96 630 96 630 310 629 c 1,0,1
731 1017 m 1,80,-1
 585 629 l 1,81,-1
 969 629 l 1,82,-1
 1093 1017 l 1,83,-1
 731 1017 l 1,80,-1
EndSplineSet
EndChar

StartChar: dollar
Encoding: 36 36 4
Width: 1420
GlyphClass: 1
Flags: W
LayerCount: 2
Fore
SplineSet
587 1153 m 1,0,1
 423 1091 423 1091 423 999 c 0,2,3
 423 920 423 920 587 899 c 1,4,-1
 587 1153 l 1,0,1
802 255 m 1,5,6
 1021 331 1021 331 1021 444 c 0,7,8
 1021 614 1021 614 802 637 c 1,9,-1
 802 255 l 1,5,6
1317 431 m 0,10,11
 1317 242 1317 242 1156 118 c 0,12,13
 1024 16 1024 16 802 -30 c 1,14,-1
 802 -280 l 2,15,16
 802 -387 802 -387 687 -387 c 0,17,18
 637 -387 637 -387 609 -349 c 0,19,20
 587 -318 587 -318 587 -280 c 2,21,-1
 587 -59 l 1,22,23
 548 -61 548 -61 511 -61 c 0,24,25
 310 -61 310 -61 198 -7 c 0,26,27
 97 41 97 41 97 116 c 0,28,29
 97 259 97 259 255 259 c 0,30,31
 296 259 296 259 394 229.5 c 128,-1,32
 492 200 492 200 521 200 c 0,33,34
 548 200 548 200 587 205 c 1,35,-1
 587 646 l 1,36,37
 412 657 412 657 289 720 c 0,38,39
 128 802 128 802 128 947 c 0,40,41
 128 1112 128 1112 272 1251 c 0,42,43
 400 1375 400 1375 587 1434 c 1,44,-1
 587 1599 l 2,45,46
 587 1716 587 1716 697 1716 c 0,47,48
 802 1716 802 1716 802 1599 c 2,49,-1
 802 1467 l 1,50,51
 915 1460 915 1460 1044 1417 c 0,52,53
 1209 1363 1209 1363 1209 1293 c 0,54,55
 1209 1236 1209 1236 1168 1196 c 128,-1,56
 1127 1156 1127 1156 1070 1156 c 0,57,58
 1022 1156 1022 1156 936 1175 c 0,59,60
 845 1194 845 1194 802 1196 c 1,61,-1
 802 889 l 1,62,63
 816 889 816 889 824 888 c 0,64,65
 1045 871 1045 871 1173 764 c 0,66,67
 1317 644 1317 644 1317 431 c 0,10,11
EndSplineSet
EndChar

StartChar: percent
Encoding: 37 37 5
Width: 1680
GlyphClass: 1
Flags: W
LayerCount: 2
Fore
SplineSet
443 992 m 0,0,1
 284 992 284 992 192 1099 c 0,2,3
 107 1196 107 1196 107 1344 c 0,4,5
 107 1456 107 1456 223 1551 c 0,6,7
 333 1642 333 1642 446 1642 c 0,8,9
 610 1642 610 1642 707 1537 c 0,10,11
 799 1438 799 1438 799 1284 c 0,12,13
 799 1148 799 1148 682 1065 c 0,14,15
 579 992 579 992 443 992 c 0,0,1
1268 1417 m 0,16,17
 1232 1361 1232 1361 1190 1268 c 0,18,19
 1130 1135 1130 1135 1120 1114 c 0,20,21
 1052 981 1052 981 923 711 c 0,22,23
 919 701 919 701 698 259 c 1,24,25
 667 185 667 185 597 41 c 1,26,27
 558 -30 558 -30 486 -30 c 0,28,29
 438 -30 438 -30 399 3 c 128,-1,30
 360 36 360 36 360 86 c 0,31,32
 360 139 360 139 511 441 c 2,33,-1
 695 803 l 2,34,35
 789 992 789 992 965 1374 c 1,36,37
 1062 1604 1062 1604 1165 1604 c 0,38,39
 1215 1604 1215 1604 1253.5 1569.5 c 128,-1,40
 1292 1535 1292 1535 1292 1486 c 0,41,42
 1292 1454 1292 1454 1268 1417 c 0,16,17
1260 -20 m 0,43,44
 1108 -20 1108 -20 1007 68 c 0,45,46
 900 160 900 160 900 307 c 0,47,48
 900 462 900 462 993 566 c 0,49,50
 1093 678 1093 678 1258 678 c 0,51,52
 1406 678 1406 678 1520 598 c 0,53,54
 1649 506 1649 506 1649 359 c 0,55,56
 1649 198 1649 198 1539.5 89 c 128,-1,57
 1430 -20 1430 -20 1260 -20 c 0,43,44
443 1405 m 0,58,59
 410 1405 410 1405 382 1384.5 c 128,-1,60
 354 1364 354 1364 354 1344 c 0,61,62
 354 1286 354 1286 376.5 1257 c 128,-1,63
 399 1228 399 1228 443 1228 c 0,64,65
 489 1228 489 1228 520 1245.5 c 128,-1,66
 551 1263 551 1263 551 1284 c 0,67,68
 551 1345 551 1345 524 1375 c 128,-1,69
 497 1405 497 1405 443 1405 c 0,58,59
1258 442 m 0,70,71
 1203 442 1203 442 1175.5 408.5 c 128,-1,72
 1148 375 1148 375 1148 307 c 0,73,74
 1148 262 1148 262 1181.5 239 c 128,-1,75
 1215 216 1215 216 1282 216 c 0,76,77
 1350 216 1350 216 1375.5 247.5 c 128,-1,78
 1401 279 1401 279 1401 359 c 0,79,80
 1401 392 1401 392 1358.5 417 c 128,-1,81
 1316 442 1316 442 1258 442 c 0,70,71
EndSplineSet
EndChar

StartChar: ampersand
Encoding: 38 38 6
Width: 1340
GlyphClass: 1
Flags: W
LayerCount: 2
Fore
SplineSet
1175 -94 m 0,0,1
 1108 -94 1108 -94 1064 -28 c 0,2,3
 1034 22 1034 22 974 123 c 1,4,5
 773 -42 773 -42 533 -42 c 0,6,7
 332 -42 332 -42 188 77 c 0,8,9
 35 202 35 202 35 395 c 0,10,11
 35 581 35 581 185 718 c 0,12,13
 233 763 233 763 499 933 c 1,14,15
 441 1093 441 1093 441 1214 c 0,16,17
 441 1322 441 1322 533 1438 c 0,18,19
 632 1564 632 1564 750 1564 c 0,20,21
 886 1564 886 1564 973 1477 c 0,22,23
 1056 1394 1056 1394 1056 1274 c 0,24,25
 1056 1042 1056 1042 818 863 c 1,26,27
 888 721 888 721 972 590 c 1,28,-1
 1005 747 l 1,29,30
 1039 842 1039 842 1119 842 c 0,31,32
 1178 842 1178 842 1214 787 c 0,33,34
 1245 740 1245 740 1245 682 c 0,35,36
 1245 496 1245 496 1147 325 c 1,37,38
 1308 87 1308 87 1308 27 c 0,39,40
 1308 -25 1308 -25 1267 -59.5 c 128,-1,41
 1226 -94 1226 -94 1175 -94 c 0,0,1
750 1317 m 0,42,43
 722 1314 722 1314 704 1278 c 0,44,45
 689 1247 689 1247 689 1215 c 0,46,47
 689 1201 689 1201 708 1138 c 0,48,49
 729 1068 729 1068 730 1061 c 1,50,51
 763 1094 763 1094 794 1146 c 0,52,53
 829 1204 829 1204 829 1237 c 0,54,55
 829 1282 829 1282 818 1298 c 0,56,57
 801 1322 801 1322 750 1317 c 0,42,43
612 720 m 1,58,59
 508 654 508 654 405 588 c 1,60,61
 293 500 293 500 293 395 c 0,62,63
 293 310 293 310 365 256 c 0,64,65
 434 204 434 204 533 204 c 0,66,67
 701 204 701 204 831 332 c 1,68,69
 770 423 770 423 612 720 c 1,58,59
EndSplineSet
EndChar

StartChar: quotesingle
Encoding: 39 39 7
Width: 888
GlyphClass: 1
Flags: W
LayerCount: 2
Fore
SplineSet
569 1391 m 2,0,-1
 560 1043 l 2,1,2
 559 994 559 994 523 961 c 128,-1,3
 487 928 487 928 431 928 c 0,4,5
 376 928 376 928 339 961 c 0,6,7
 301 993 301 993 302 1043 c 0,8,9
 301 1183 301 1183 313 1449 c 0,10,11
 320 1517 320 1517 353 1550.5 c 128,-1,12
 386 1584 386 1584 446 1584 c 0,13,14
 501 1584 501 1584 538 1551 c 128,-1,15
 575 1518 575 1518 575 1469 c 0,16,17
 575 1455 575 1455 572 1429 c 128,-1,18
 569 1403 569 1403 569 1391 c 2,0,-1
EndSplineSet
EndChar

StartChar: parenleft
Encoding: 40 40 8
Width: 750
GlyphClass: 1
Flags: W
LayerCount: 2
Fore
SplineSet
665 1351 m 0,0,1
 630 1317 630 1317 575 1263 c 1,2,3
 471 1149 471 1149 410 934 c 0,4,5
 356 743 356 743 356 559 c 0,6,7
 356 350 356 350 406 174 c 0,8,9
 472 -60 472 -60 612 -156 c 0,10,11
 738 -244 738 -244 738 -312 c 0,12,13
 738 -362 738 -362 698.5 -397 c 128,-1,14
 659 -432 659 -432 609 -432 c 0,15,16
 568 -432 568 -432 517 -405 c 0,17,18
 71 -166 71 -166 71 581 c 0,19,20
 71 849 71 849 183 1123 c 0,21,22
 310 1432 310 1432 518 1572 c 0,23,24
 570 1606 570 1606 606 1606 c 0,25,26
 661 1606 661 1606 699.5 1566.5 c 128,-1,27
 738 1527 738 1527 738 1476 c 0,28,29
 738 1426 738 1426 665 1351 c 0,0,1
EndSplineSet
EndChar

StartChar: parenright
Encoding: 41 41 9
Width: 750
GlyphClass: 1
Flags: W
LayerCount: 2
Fore
SplineSet
293 -405 m 0,0,1
 242 -432 242 -432 201 -432 c 0,2,3
 150 -432 150 -432 111 -397 c 128,-1,4
 72 -362 72 -362 72 -312 c 0,5,6
 72 -252 72 -252 132 -204 c 0,7,8
 184 -166 184 -166 235 -127 c 1,9,10
 454 88 454 88 454 559 c 0,11,12
 454 743 454 743 400 934 c 0,13,14
 339 1149 339 1149 235 1263 c 0,15,16
 185 1312 185 1312 135 1361 c 0,17,18
 71 1430 71 1430 71 1476 c 0,19,20
 71 1527 71 1527 110 1566.5 c 128,-1,21
 149 1606 149 1606 203 1606 c 0,22,23
 240 1606 240 1606 291 1572 c 0,24,25
 500 1432 500 1432 626 1123 c 0,26,27
 738 849 738 849 738 581 c 0,28,29
 738 -166 738 -166 293 -405 c 0,0,1
EndSplineSet
EndChar

StartChar: asterisk
Encoding: 42 42 10
Width: 1085
GlyphClass: 1
Flags: W
LayerCount: 2
Fore
SplineSet
896 1159 m 0,0,1
 824 1145 824 1145 726 1134 c 1,2,3
 896 962 896 962 896 899 c 0,4,5
 896 850 896 850 856 815.5 c 128,-1,6
 816 781 816 781 764 781 c 0,7,8
 709 781 709 781 652 838 c 1,9,10
 610 888 610 888 568 937 c 0,11,12
 528 983 528 983 497 1012 c 1,13,14
 290 816 290 816 217 816 c 0,15,16
 164 816 164 816 125 852 c 128,-1,17
 86 888 86 888 86 936 c 0,18,19
 86 980 86 980 137 1029 c 1,20,21
 181 1064 181 1064 226 1100 c 0,22,23
 254 1123 254 1123 271 1137 c 1,24,25
 147 1175 147 1175 88 1199 c 0,26,27
 7 1232 7 1232 7 1303 c 0,28,29
 7 1350 7 1350 43.5 1388 c 128,-1,30
 80 1426 80 1426 135 1426 c 0,31,32
 164 1426 164 1426 363 1356 c 1,33,34
 358 1442 358 1442 358 1477 c 0,35,36
 358 1527 358 1527 395 1560.5 c 128,-1,37
 432 1594 432 1594 487 1594 c 256,38,39
 542 1594 542 1594 579.5 1560.5 c 128,-1,40
 617 1527 617 1527 617 1477 c 0,41,42
 617 1416 617 1416 620 1365 c 1,43,44
 802 1392 802 1392 877 1392 c 0,45,46
 932 1392 932 1392 967.5 1356.5 c 128,-1,47
 1003 1321 1003 1321 1003 1273 c 0,48,49
 1003 1180 1003 1180 896 1159 c 0,0,1
EndSplineSet
EndChar

StartChar: plus
Encoding: 43 43 11
Width: 1250
GlyphClass: 1
Flags: W
LayerCount: 2
Fore
SplineSet
986 523 m 0,0,1
 974 523 974 523 950.5 526.5 c 128,-1,2
 927 530 927 530 914 530 c 0,3,4
 887 530 887 530 834.5 528.5 c 128,-1,5
 782 527 782 527 754 527 c 1,6,7
 755 493 755 493 754 438 c 0,8,9
 753 368 753 368 753 350 c 0,10,11
 753 299 753 299 716 265.5 c 128,-1,12
 679 232 679 232 624 232 c 256,13,14
 569 232 569 232 532 265.5 c 128,-1,15
 495 299 495 299 495 350 c 1,16,17
 495 337 495 337 493 522 c 1,18,19
 418 518 418 518 362 518 c 0,20,21
 291 518 291 518 236 544 c 0,22,23
 167 577 167 577 167 638 c 0,24,25
 167 716 167 716 231 740 c 0,26,27
 266 753 266 753 362 753 c 0,28,29
 419 753 419 753 493 757 c 1,30,31
 493 767 493 767 492 797 c 128,-1,32
 491 827 491 827 491 846 c 0,33,34
 491 1046 491 1046 626 1046 c 0,35,36
 679 1046 679 1046 718 1013.5 c 128,-1,37
 757 981 757 981 757 931 c 0,38,39
 757 915 757 915 753.5 881.5 c 128,-1,40
 750 848 750 848 750 831 c 2,41,-1
 751 761 l 1,42,43
 774 760 774 760 786 760 c 0,44,45
 806 760 806 760 846.5 762 c 128,-1,46
 887 764 887 764 908 764 c 0,47,48
 1112 764 1112 764 1112 643 c 0,49,50
 1112 595 1112 595 1078 560 c 0,51,52
 1041 523 1041 523 986 523 c 0,0,1
EndSplineSet
EndChar

StartChar: comma
Encoding: 44 44 12
Width: 888
GlyphClass: 1
Flags: W
LayerCount: 2
Fore
SplineSet
530 -124 m 0,0,1
 481 -222 481 -222 452 -278 c 0,2,3
 418 -344 418 -344 343 -344 c 0,4,5
 290 -344 290 -344 253 -310.5 c 128,-1,6
 216 -277 216 -277 216 -233 c 0,7,8
 216 -207 216 -207 280 -78 c 0,9,10
 337 36 337 36 366 83 c 0,11,12
 403 142 403 142 470 142 c 0,13,14
 523 142 523 142 560 108 c 128,-1,15
 597 74 597 74 597 30 c 0,16,17
 597 10 597 10 530 -124 c 0,0,1
EndSplineSet
EndChar

StartChar: hyphen
Encoding: 45 45 13
AltUni2: 002010.ffffffff.0 002010.ffffffff.0
Width: 1250
GlyphClass: 1
Flags: W
LayerCount: 2
Fore
SplineSet
874 431 m 0,0,1
 736 421 736 421 383 421 c 0,2,3
 321 421 321 421 274 449 c 0,4,5
 219 483 219 483 219 541 c 256,6,7
 219 599 219 599 274 633 c 0,8,9
 321 662 321 662 383 662 c 0,10,11
 462 662 462 662 620 666.5 c 128,-1,12
 778 671 778 671 857 671 c 0,13,14
 919 671 919 671 966 646 c 0,15,16
 1026 614 1026 614 1026 551 c 0,17,18
 1026 442 1026 442 874 431 c 0,0,1
EndSplineSet
EndChar

StartChar: period
Encoding: 46 46 14
Width: 888
GlyphClass: 1
Flags: W
LayerCount: 2
Fore
SplineSet
441 -104 m 256,0,1
 374 -104 374 -104 325 -62.5 c 128,-1,2
 276 -21 276 -21 276 31 c 0,3,4
 276 84 276 84 325 126.5 c 128,-1,5
 374 169 374 169 441 169 c 0,6,7
 512 169 512 169 558 129 c 128,-1,8
 604 89 604 89 604 31 c 0,9,10
 604 -22 604 -22 556 -63 c 128,-1,11
 508 -104 508 -104 441 -104 c 256,0,1
EndSplineSet
EndChar

StartChar: slash
Encoding: 47 47 15
Width: 1048
GlyphClass: 1
Flags: W
LayerCount: 2
Fore
SplineSet
998 1438 m 0,0,1
 959 1354 959 1354 885 1178 c 1,2,3
 817 1001 817 1001 693 768 c 0,4,5
 584 570 584 570 475 371 c 0,6,7
 454 331 454 331 294 -11 c 0,8,9
 257 -90 257 -90 177 -90 c 0,10,11
 125 -90 125 -90 86 -57 c 0,12,13
 44 -21 44 -21 44 31 c 0,14,15
 44 54 44 54 53 77 c 0,16,17
 132 282 132 282 348 668.5 c 128,-1,18
 564 1055 564 1055 643 1262 c 0,19,20
 703 1419 703 1419 732 1475 c 0,21,22
 810 1628 810 1628 879 1626 c 0,23,24
 930 1624 930 1624 969 1591 c 0,25,26
 1011 1555 1011 1555 1011 1504 c 0,27,28
 1011 1473 1011 1473 998 1438 c 0,0,1
EndSplineSet
EndChar

StartChar: zero
Encoding: 48 48 16
Width: 1250
GlyphClass: 1
Flags: W
LayerCount: 2
Fore
SplineSet
611 -39 m 0,0,1
 280 -39 280 -39 131 247 c 0,2,3
 21 459 21 459 21 794 c 0,4,5
 21 1080 21 1080 166 1296 c 0,6,7
 340 1555 340 1555 642 1555 c 0,8,9
 928 1555 928 1555 1086 1324 c 0,10,11
 1219 1129 1219 1129 1219 853 c 0,12,13
 1219 407 1219 407 1067 184 c 128,-1,14
 915 -39 915 -39 611 -39 c 0,0,1
641 1295 m 0,15,16
 479 1295 479 1295 381 1134 c 0,17,18
 295 994 295 994 295 809 c 0,19,20
 295 565 295 565 341 433 c 0,21,22
 415 220 415 220 611 220 c 0,23,24
 775 220 775 220 857 369.5 c 128,-1,25
 939 519 939 519 939 818 c 0,26,27
 939 1057 939 1057 864.5 1176 c 128,-1,28
 790 1295 790 1295 641 1295 c 0,15,16
EndSplineSet
EndChar

StartChar: one
Encoding: 49 49 17
Width: 1250
GlyphClass: 1
Flags: W
LayerCount: 2
Fore
SplineSet
822 -1 m 2,0,-1
 425 0 l 2,1,2
 236 0 236 0 236 119 c 0,3,4
 236 253 236 253 447 253 c 0,5,6
 467 253 467 253 491 252 c 1,7,-1
 491 1139 l 1,8,9
 404 1079 404 1079 378 1079 c 0,10,11
 322 1079 322 1079 280.5 1119 c 128,-1,12
 239 1159 239 1159 239 1212 c 0,13,14
 239 1267 239 1267 306 1325 c 1,15,-1
 419 1407 l 1,16,-1
 541 1505 l 1,17,18
 616 1559 616 1559 686 1559 c 0,19,20
 776 1559 776 1559 776 1451 c 0,21,22
 776 1332 776 1332 766 1116 c 128,-1,23
 756 900 756 900 756 499 c 2,24,-1
 756 257 l 1,25,-1
 822 257 l 2,26,27
 880 257 880 257 919.5 220 c 128,-1,28
 959 183 959 183 959 128 c 256,29,30
 959 73 959 73 919.5 36 c 128,-1,31
 880 -1 880 -1 822 -1 c 2,0,-1
EndSplineSet
EndChar

StartChar: two
Encoding: 50 50 18
Width: 1250
GlyphClass: 1
Flags: W
LayerCount: 2
Fore
SplineSet
1008 -2 m 0,0,1
 983 -2 983 -2 930.5 6.5 c 128,-1,2
 878 15 878 15 855 15 c 2,3,-1
 561 16 l 2,4,5
 523 16 523 16 446 6.5 c 128,-1,6
 369 -3 369 -3 330 -3 c 0,7,8
 319 -3 319 -3 298 1 c 128,-1,9
 277 5 277 5 266 5 c 0,10,11
 176 5 176 5 144 78 c 0,12,13
 124 124 124 124 124 220 c 0,14,15
 124 407 124 407 207 533 c 0,16,17
 271 630 271 630 414 727 c 0,18,19
 549 816 549 816 683 904 c 1,20,21
 841 1019 841 1019 841 1165 c 0,22,23
 841 1203 841 1203 778 1240.5 c 128,-1,24
 715 1278 715 1278 655 1278 c 0,25,26
 549 1278 549 1278 430.5 1183.5 c 128,-1,27
 312 1089 312 1089 268 1089 c 0,28,29
 215 1089 215 1089 175 1115 c 0,30,31
 125 1147 125 1147 125 1204 c 0,32,33
 125 1265 125 1265 175 1309 c 0,34,35
 296 1416 296 1416 386 1465 c 0,36,37
 516 1536 516 1536 655 1536 c 0,38,39
 828 1536 828 1536 967 1445 c 0,40,41
 1126 1341 1126 1341 1126 1173 c 0,42,43
 1126 1003 1126 1003 1048 884 c 0,44,45
 987 789 987 789 855 699 c 1,46,47
 730 620 730 620 605 542 c 0,48,49
 415 418 415 418 401 259 c 1,50,51
 456 266 456 266 563 275 c 0,52,53
 776 286 776 286 868 286 c 0,54,55
 954 286 954 286 1038 249 c 0,56,57
 1142 203 1142 203 1142 131 c 0,58,59
 1142 79 1142 79 1105 40 c 0,60,61
 1066 -2 1066 -2 1008 -2 c 0,0,1
EndSplineSet
EndChar

StartChar: three
Encoding: 51 51 19
Width: 1250
GlyphClass: 1
Flags: W
LayerCount: 2
Fore
SplineSet
917 810 m 1,0,1
 1123 695 1123 695 1123 442 c 0,2,3
 1123 238 1123 238 972 96 c 128,-1,4
 821 -46 821 -46 605 -46 c 0,5,6
 444 -46 444 -46 315 19 c 0,7,8
 166 95 166 95 114 235 c 0,9,10
 106 256 106 256 106 280 c 0,11,12
 106 336 106 336 151 373 c 0,13,14
 193 407 193 407 247 407 c 0,15,16
 310 407 310 407 348 357 c 0,17,18
 412 271 412 271 422 263 c 0,19,20
 484 213 484 213 605 213 c 0,21,22
 700 213 700 213 771.5 270 c 128,-1,23
 843 327 843 327 843 407 c 0,24,25
 843 656 843 656 508 689 c 0,26,27
 361 703 361 703 361 812 c 0,28,29
 361 895 361 895 475 933 c 1,30,31
 583 957 583 957 690 982 c 1,32,33
 758 1003 758 1003 792 1037 c 128,-1,34
 826 1071 826 1071 827 1118 c 0,35,36
 831 1267 831 1267 594 1267 c 0,37,38
 516 1267 516 1267 423 1207.5 c 128,-1,39
 330 1148 330 1148 296 1148 c 0,40,41
 239 1148 239 1148 199 1189 c 128,-1,42
 159 1230 159 1230 159 1282 c 0,43,44
 159 1367 159 1367 327 1451 c 0,45,46
 477 1526 477 1526 571 1526 c 0,47,48
 798 1526 798 1526 936 1428 c 0,49,50
 1087 1320 1087 1320 1087 1120 c 0,51,52
 1087 1010 1087 1010 1044.5 932.5 c 128,-1,53
 1002 855 1002 855 917 810 c 1,0,1
EndSplineSet
EndChar

StartChar: four
Encoding: 52 52 20
Width: 1250
GlyphClass: 1
Flags: W
LayerCount: 2
Fore
SplineSet
728 413 m 1,0,-1
 329 413 l 2,1,2
 8 413 8 413 8 544 c 0,3,4
 8 599 8 599 64 667 c 0,5,6
 110 719 110 719 157 772 c 1,7,8
 318 1002 318 1002 648 1456 c 0,9,10
 726 1560 726 1560 851 1560 c 0,11,12
 910 1560 910 1560 953 1530 c 0,13,14
 1004 1494 1004 1494 1004 1429 c 2,15,-1
 1005 677 l 1,16,17
 1136 673 1136 673 1180 650 c 0,18,19
 1229 623 1229 623 1229 544 c 0,20,21
 1230 461 1230 461 1153 430 c 0,22,23
 1099 409 1099 409 1005 413 c 1,24,25
 1008 269 1008 269 1004 101 c 0,26,27
 1003 46 1003 46 968 10 c 128,-1,28
 933 -26 933 -26 873 -26 c 0,29,30
 721 -26 721 -26 728 174 c 1,31,-1
 728 413 l 1,0,-1
728 1126 m 1,32,33
 631 973 631 973 429 677 c 1,34,-1
 728 677 l 1,35,-1
 728 1126 l 1,32,33
EndSplineSet
EndChar

StartChar: five
Encoding: 53 53 21
Width: 1250
GlyphClass: 1
Flags: W
LayerCount: 2
Fore
SplineSet
562 -63 m 0,0,1
 256 -63 256 -63 111 155 c 0,2,3
 86 193 86 193 86 228 c 0,4,5
 86 282 86 282 129 320 c 128,-1,6
 172 358 172 358 227 358 c 0,7,8
 283 358 283 358 323 316 c 0,9,10
 393 243 393 243 399 238 c 0,11,12
 458 196 458 196 562 196 c 0,13,14
 716 196 716 196 819 309 c 0,15,16
 918 418 918 418 918 573 c 0,17,18
 918 722 918 722 868.5 796 c 128,-1,19
 819 870 819 870 719 870 c 0,20,21
 543 870 543 870 436 756 c 0,22,23
 394 708 394 708 351 661 c 1,24,25
 297 610 297 610 236 610 c 0,26,27
 179 610 179 610 139.5 649 c 128,-1,28
 100 688 100 688 100 741 c 0,29,30
 100 764 100 764 117 915 c 0,31,32
 150 1208 150 1208 150 1305 c 0,33,34
 150 1329 150 1329 132.5 1371 c 128,-1,35
 115 1413 115 1413 115 1437 c 0,36,37
 115 1487 115 1487 166 1513 c 0,38,39
 206 1533 206 1533 260 1533 c 0,40,41
 280 1533 280 1533 320.5 1529.5 c 128,-1,42
 361 1526 361 1526 381 1526 c 2,43,-1
 862 1525 l 2,44,45
 880 1525 880 1525 939 1531 c 128,-1,46
 998 1537 998 1537 1017 1537 c 0,47,48
 1071 1537 1071 1537 1106 1502.5 c 128,-1,49
 1141 1468 1141 1468 1141 1414 c 0,50,51
 1141 1265 1141 1265 838 1265 c 0,52,53
 814 1265 814 1265 777.5 1266 c 128,-1,54
 741 1267 741 1267 729 1267 c 2,55,-1
 431 1267 l 1,56,57
 428 1206 428 1206 406 1065 c 1,58,59
 537 1129 537 1129 719 1129 c 0,60,61
 962 1129 962 1129 1088 948 c 0,62,63
 1193 799 1193 799 1193 573 c 0,64,65
 1193 301 1193 301 1025 123 c 0,66,67
 850 -63 850 -63 562 -63 c 0,0,1
EndSplineSet
EndChar

StartChar: six
Encoding: 54 54 22
Width: 1250
GlyphClass: 1
Flags: W
LayerCount: 2
Fore
SplineSet
616 -72 m 0,0,1
 333 -72 333 -72 198 128 c 0,2,3
 90 288 90 288 90 548 c 0,4,5
 90 1035 90 1035 504 1392 c 0,6,7
 556 1442 556 1442 608 1491 c 0,8,9
 681 1556 681 1556 729 1556 c 0,10,11
 784 1556 784 1556 826 1518.5 c 128,-1,12
 868 1481 868 1481 870 1428 c 0,13,14
 872 1378 872 1378 756 1267 c 0,15,16
 673 1191 673 1191 591 1116 c 0,17,18
 499 1026 499 1026 458 940 c 1,19,20
 512 961 512 961 558.5 971 c 128,-1,21
 605 981 605 981 644 981 c 0,22,23
 894 981 894 981 1031 850.5 c 128,-1,24
 1168 720 1168 720 1168 487 c 0,25,26
 1168 245 1168 245 1023 90 c 0,27,28
 870 -72 870 -72 616 -72 c 0,0,1
616 711 m 0,29,30
 542 711 542 711 483 687 c 0,31,32
 452 674 452 674 369 624 c 1,33,34
 365 583 365 583 365 548 c 0,35,36
 365 359 365 359 429 264.5 c 128,-1,37
 493 170 493 170 621 170 c 0,38,39
 752 170 752 170 824 258 c 0,40,41
 893 342 893 342 893 487 c 0,42,43
 893 599 893 599 824 655 c 128,-1,44
 755 711 755 711 616 711 c 0,29,30
EndSplineSet
EndChar

StartChar: seven
Encoding: 55 55 23
Width: 1250
GlyphClass: 1
Flags: W
LayerCount: 2
Fore
SplineSet
807 1234 m 1,0,1
 695 1235 695 1235 390 1243 c 0,2,3
 314 1243 314 1243 163 1250 c 1,4,5
 30 1261 30 1261 30 1379 c 0,6,7
 30 1434 30 1434 70 1471 c 128,-1,8
 110 1508 110 1508 168 1508 c 0,9,10
 294 1508 294 1508 546.5 1500.5 c 128,-1,11
 799 1493 799 1493 925 1493 c 2,12,-1
 1108 1493 l 2,13,14
 1162 1493 1162 1493 1203 1472 c 0,15,16
 1254 1446 1254 1446 1254 1395 c 0,17,18
 1254 1340 1254 1340 1194 1264 c 1,19,20
 1144 1208 1144 1208 1093 1152 c 0,21,22
 966 1011 966 1011 858 806 c 0,23,24
 824 742 824 742 679 431 c 0,25,26
 660 390 660 390 594 207 c 0,27,28
 544 69 544 69 492 -9 c 0,29,30
 452 -66 452 -66 381 -66 c 0,31,32
 326 -66 326 -66 283 -29 c 128,-1,33
 240 8 240 8 240 63 c 0,34,35
 240 106 240 106 307 263 c 0,36,37
 415 515 415 515 522 767 c 1,38,39
 660 1061 660 1061 807 1234 c 1,0,1
EndSplineSet
EndChar

StartChar: eight
Encoding: 56 56 24
Width: 1250
GlyphClass: 1
Flags: W
LayerCount: 2
Fore
SplineSet
614 -54 m 0,0,1
 392 -54 392 -54 250 40 c 0,2,3
 85 150 85 150 82 361 c 0,4,5
 77 656 77 656 276 784 c 1,6,7
 131 899 131 899 131 1073 c 0,8,9
 131 1270 131 1270 281 1400 c 0,10,11
 424 1524 424 1524 626 1526 c 0,12,13
 865 1528 865 1528 984 1399 c 0,14,15
 1086 1287 1086 1287 1086 1093 c 0,16,17
 1086 984 1086 984 1047 918 c 0,18,19
 1012 859 1012 859 930 811 c 1,20,21
 1052 743 1052 743 1105 653 c 0,22,23
 1166 553 1166 553 1166 390 c 0,24,25
 1166 176 1166 176 999 55 c 0,26,27
 848 -54 848 -54 614 -54 c 0,0,1
623 1280 m 0,28,29
 404 1280 404 1280 406 1074 c 0,30,31
 407 971 407 971 595 923 c 1,32,33
 700 952 700 952 740 976 c 0,34,35
 811 1019 811 1019 811 1093 c 0,36,37
 811 1205 811 1205 763 1246 c 0,38,39
 723 1280 723 1280 623 1280 c 0,28,29
608 674 m 1,40,41
 464 611 464 611 418 563 c 0,42,43
 351 496 351 496 355 372 c 0,44,45
 358 275 358 275 449 226 c 0,46,47
 520 188 520 188 614 188 c 0,48,49
 771 188 771 188 830 254 c 0,50,51
 876 306 876 306 876 420 c 0,52,53
 876 523 876 523 795 587 c 0,54,55
 734 635 734 635 608 674 c 1,40,41
EndSplineSet
EndChar

StartChar: nine
Encoding: 57 57 25
Width: 1250
GlyphClass: 1
Flags: W
LayerCount: 2
Fore
SplineSet
790 542 m 1,0,1
 729 521 729 521 678.5 510.5 c 128,-1,2
 628 500 628 500 588 500 c 0,3,4
 387 500 387 500 237 608 c 0,5,6
 53 740 53 740 53 985 c 0,7,8
 53 1269 53 1269 241 1414 c 0,9,10
 399 1536 399 1536 652 1536 c 0,11,12
 853 1536 853 1536 1010 1381 c 0,13,14
 1175 1219 1175 1219 1176 989 c 0,15,16
 1177 739 1177 739 1079 504 c 0,17,18
 973 249 973 249 789 119 c 0,19,20
 712 65 712 65 548 -10 c 0,21,22
 360 -95 360 -95 282 -95 c 0,23,24
 223 -95 223 -95 184 -53 c 0,25,26
 148 -14 148 -14 148 38 c 0,27,28
 148 118 148 118 244 160 c 1,29,30
 326 186 326 186 408 213 c 1,31,32
 554 269 554 269 637.5 340.5 c 128,-1,33
 721 412 721 412 790 542 c 1,0,1
623 1297 m 0,34,35
 475 1297 475 1297 401 1223.5 c 128,-1,36
 327 1150 327 1150 326 1002 c 0,37,38
 326 882 326 882 413 815 c 0,39,40
 492 755 492 755 617 755 c 0,41,42
 667 755 667 755 735.5 786 c 128,-1,43
 804 817 804 817 891 879 c 1,44,45
 901 949 901 949 901 989 c 0,46,47
 900 1094 900 1094 806 1197 c 0,48,49
 713 1297 713 1297 623 1297 c 0,34,35
EndSplineSet
EndChar

StartChar: colon
Encoding: 58 58 26
Width: 888
GlyphClass: 1
Flags: W
LayerCount: 2
Fore
SplineSet
454 800 m 0,0,1
 392 800 392 800 351.5 837 c 128,-1,2
 311 874 311 874 311 931 c 0,3,4
 311 942 311 942 306.5 965 c 128,-1,5
 302 988 302 988 302 1000 c 0,6,7
 302 1056 302 1056 344.5 1092.5 c 128,-1,8
 387 1129 387 1129 446 1129 c 0,9,10
 596 1129 596 1129 596 931 c 0,11,12
 596 874 596 874 555.5 837 c 128,-1,13
 515 800 515 800 454 800 c 0,0,1
470 123 m 0,14,15
 315 123 315 123 315 357 c 0,16,17
 315 413 315 413 360 451 c 0,18,19
 403 486 403 486 461 486 c 0,20,21
 613 486 613 486 613 255 c 0,22,23
 613 198 613 198 572 160.5 c 128,-1,24
 531 123 531 123 470 123 c 0,14,15
EndSplineSet
EndChar

StartChar: semicolon
Encoding: 59 59 27
Width: 888
GlyphClass: 1
Flags: W
LayerCount: 2
Fore
SplineSet
482 788 m 256,0,1
 421 788 421 788 380.5 826.5 c 128,-1,2
 340 865 340 865 340 923 c 0,3,4
 340 935 340 935 335 957.5 c 128,-1,5
 330 980 330 980 330 992 c 0,6,7
 330 1049 330 1049 374 1087 c 0,8,9
 415 1124 415 1124 474 1124 c 0,10,11
 624 1124 624 1124 624 923 c 0,12,13
 624 865 624 865 583.5 826.5 c 128,-1,14
 543 788 543 788 482 788 c 256,0,1
540 17 m 0,15,16
 510 -16 510 -16 500 -29 c 0,17,18
 474 -62 474 -62 472 -81 c 0,19,20
 457 -194 457 -194 344 -194 c 0,21,22
 284 -194 284 -194 249 -157.5 c 128,-1,23
 214 -121 214 -121 214 -67 c 0,24,25
 214 4 214 4 307 134 c 0,26,27
 407 275 407 275 487 275 c 0,28,29
 539 275 539 275 579 239 c 128,-1,30
 619 203 619 203 619 153 c 0,31,32
 619 105 619 105 540 17 c 0,15,16
EndSplineSet
EndChar

StartChar: less
Encoding: 60 60 28
Width: 1250
GlyphClass: 1
Flags: W
LayerCount: 2
Fore
SplineSet
885 856 m 0,0,1
 800 773 800 773 622 616 c 1,2,3
 697 543 697 543 855 405 c 0,4,5
 905 365 905 365 905 315 c 0,6,7
 905 267 905 267 866.5 230.5 c 128,-1,8
 828 194 828 194 775 194 c 0,9,10
 719 194 719 194 635 265 c 1,11,-1
 519 377 l 2,12,13
 426 466 426 466 341 496 c 0,14,15
 240 531 240 531 240 607 c 0,16,17
 240 676 240 676 330 715.5 c 128,-1,18
 420 755 420 755 530 861 c 0,19,20
 680 1007 680 1007 711 1030 c 0,21,22
 752 1061 752 1061 797 1061 c 0,23,24
 850 1061 850 1061 888.5 1025 c 128,-1,25
 927 989 927 989 927 941 c 0,26,27
 927 894 927 894 885 856 c 0,0,1
EndSplineSet
EndChar

StartChar: equal
Encoding: 61 61 29
Width: 1250
GlyphClass: 1
Flags: W
LayerCount: 2
Fore
SplineSet
921 766 m 2,0,-1
 453 766 l 2,1,2
 430 766 430 766 385 764 c 128,-1,3
 340 762 340 762 317 762 c 0,4,5
 261 762 261 762 225 796 c 128,-1,6
 189 830 189 830 189 879 c 0,7,8
 189 1000 189 1000 387 1000 c 0,9,10
 399 1000 399 1000 423 999 c 2,11,-1
 454 999 l 1,12,-1
 921 998 l 2,13,14
 977 998 977 998 1013.5 965 c 128,-1,15
 1050 932 1050 932 1050 882 c 256,16,17
 1050 832 1050 832 1013.5 799 c 128,-1,18
 977 766 977 766 921 766 c 2,0,-1
907 278 m 0,19,20
 841 278 841 278 709 280.5 c 128,-1,21
 577 283 577 283 511 283 c 0,22,23
 481 283 481 283 421.5 279.5 c 128,-1,24
 362 276 362 276 332 276 c 0,25,26
 275 276 275 276 237.5 308 c 128,-1,27
 200 340 200 340 200 392 c 0,28,29
 200 500 200 500 323 508 c 0,30,31
 428 515 428 515 511 515 c 0,32,33
 577 515 577 515 709 512.5 c 128,-1,34
 841 510 841 510 907 510 c 0,35,36
 963 510 963 510 999.5 477 c 128,-1,37
 1036 444 1036 444 1036 394 c 256,38,39
 1036 344 1036 344 999.5 311 c 128,-1,40
 963 278 963 278 907 278 c 0,19,20
EndSplineSet
EndChar

StartChar: greater
Encoding: 62 62 30
Width: 1250
GlyphClass: 1
Flags: W
LayerCount: 2
Fore
SplineSet
1000 570 m 0,0,1
 759 363 759 363 496 208 c 0,2,3
 459 186 459 186 422 186 c 0,4,5
 368 186 368 186 330.5 223 c 128,-1,6
 293 260 293 260 293 308 c 0,7,8
 293 363 293 363 347 402 c 0,9,10
 464 481 464 481 694 644 c 1,11,12
 579 727 579 727 473 828 c 0,13,14
 339 954 339 954 339 1005 c 0,15,16
 339 1054 339 1054 379.5 1089.5 c 128,-1,17
 420 1125 420 1125 472 1125 c 0,18,19
 526 1125 526 1125 569 1081 c 0,20,21
 793 851 793 851 970 766 c 0,22,23
 1051 727 1051 727 1051 663 c 0,24,25
 1051 614 1051 614 1000 570 c 0,0,1
EndSplineSet
EndChar

StartChar: question
Encoding: 63 63 31
Width: 1159
GlyphClass: 1
Flags: W
LayerCount: 2
Fore
SplineSet
868 647 m 0,0,1
 861 642 861 642 703 531 c 0,2,3
 602 461 602 461 549 402 c 0,4,5
 501 349 501 349 443 349 c 0,6,7
 386 349 386 349 343 390.5 c 128,-1,8
 300 432 300 432 300 486 c 0,9,10
 300 566 300 566 429 665 c 1,11,12
 548 749 548 749 667 834 c 1,13,14
 796 932 796 932 796 1011 c 0,15,16
 796 1104 796 1104 701.5 1185.5 c 128,-1,17
 607 1267 607 1267 505 1267 c 0,18,19
 451 1267 451 1267 357 1205.5 c 128,-1,20
 263 1144 263 1144 224 1144 c 0,21,22
 165 1144 165 1144 124.5 1187.5 c 128,-1,23
 84 1231 84 1231 84 1284 c 0,24,25
 84 1384 84 1384 259 1467 c 0,26,27
 407 1538 407 1538 505 1538 c 0,28,29
 722 1538 722 1538 897.5 1378 c 128,-1,30
 1073 1218 1073 1218 1073 1011 c 0,31,32
 1073 806 1073 806 868 647 c 0,0,1
388 -72 m 0,33,34
 331 -72 331 -72 284 -36 c 0,35,36
 233 4 233 4 233 63 c 0,37,38
 233 131 233 131 273 189 c 0,39,40
 321 260 321 260 402 260 c 0,41,42
 470 260 470 260 508 209 c 0,43,44
 538 167 538 167 538 110 c 0,45,46
 538 49 538 49 505 -4 c 0,47,48
 463 -72 463 -72 388 -72 c 0,33,34
EndSplineSet
EndChar

StartChar: at
Encoding: 64 64 32
Width: 1907
GlyphClass: 1
Flags: W
LayerCount: 2
Fore
SplineSet
1306 388 m 0,0,1
 1237 388 1237 388 1167.5 421.5 c 128,-1,2
 1098 455 1098 455 1028 521 c 1,3,4
 986 476 986 476 919 441 c 0,5,6
 847 403 847 403 793 403 c 0,7,8
 667 403 667 403 556 500.5 c 128,-1,9
 445 598 445 598 445 719 c 0,10,11
 445 911 445 911 600 1067 c 0,12,13
 759 1226 759 1226 961 1226 c 0,14,15
 1081 1226 1081 1226 1081 1125 c 0,16,17
 1081 1050 1081 1050 989 1010 c 0,18,19
 823 939 823 939 818 936 c 0,20,21
 726 872 726 872 726 740 c 0,22,23
 726 726 726 726 743 704 c 0,24,25
 764 677 764 677 792 676 c 0,26,27
 863 674 863 674 914 744 c 1,28,-1
 992 874 l 1,29,30
 1041 944 1041 944 1104 944 c 0,31,32
 1208 944 1208 944 1208 823 c 0,33,34
 1208 804 1208 804 1201.5 765.5 c 128,-1,35
 1195 727 1195 727 1195 707 c 0,36,37
 1195 670 1195 670 1235 662 c 0,38,39
 1242 661 1242 661 1306 661 c 0,40,41
 1423 661 1423 661 1467 711 c 0,42,43
 1508 758 1508 758 1508 877 c 0,44,45
 1508 1093 1508 1093 1327 1230 c 0,46,47
 1158 1357 1158 1357 921 1357 c 0,48,49
 651 1357 651 1357 497 1162 c 0,50,51
 356 985 356 985 356 713 c 0,52,53
 356 466 356 466 520 297 c 0,54,55
 691 122 691 122 959 122 c 0,56,57
 1056 122 1056 122 1303 211 c 0,58,59
 1356 230 1356 230 1374 230 c 0,60,61
 1433 230 1433 230 1474 186.5 c 128,-1,62
 1515 143 1515 143 1515 88 c 0,63,64
 1515 -13 1515 -13 1286 -83 c 0,65,66
 1103 -140 1103 -140 961 -140 c 0,67,68
 591 -140 591 -140 334 100 c 0,69,70
 70 345 70 345 70 713 c 0,71,72
 70 1093 70 1093 290 1352 c 0,73,74
 528 1630 528 1630 921 1630 c 0,75,76
 1273 1630 1273 1630 1525 1427 c 0,77,78
 1793 1211 1793 1211 1793 877 c 0,79,80
 1793 648 1793 648 1672 521 c 0,81,82
 1546 388 1546 388 1306 388 c 0,0,1
EndSplineSet
EndChar

StartChar: A
Encoding: 65 65 33
Width: 1498
GlyphClass: 1
Flags: W
LayerCount: 2
Fore
SplineSet
1250 -30 m 0,0,1
 1171 -27 1171 -27 1091 156 c 0,2,3
 1038 274 1038 274 1000 428 c 1,4,5
 926 417 926 417 758 406 c 0,6,7
 600 395 600 395 516 380 c 1,8,9
 470 270 470 270 356 49 c 1,10,11
 312 -23 312 -23 234 -23 c 0,12,13
 179 -23 179 -23 135 14.5 c 128,-1,14
 91 52 91 52 91 110 c 0,15,16
 91 161 91 161 237 456 c 1,17,18
 223 487 223 487 225 514 c 0,19,20
 229 562 229 562 322 589 c 1,21,22
 464 835 464 835 638 1099 c 0,23,24
 888 1478 888 1478 946 1478 c 0,25,26
 1056 1478 1056 1478 1093 1345 c 1,27,28
 1113 1238 1113 1238 1156 1024 c 0,29,30
 1217 736 1217 736 1305 365 c 0,31,32
 1312 337 1312 337 1356 233 c 0,33,34
 1392 147 1392 147 1392 104 c 0,35,36
 1392 46 1392 46 1348.5 7 c 128,-1,37
 1305 -32 1305 -32 1250 -30 c 0,0,1
877 996 m 1,38,39
 799 862 799 862 662 631 c 1,40,41
 707 641 707 641 802 647 c 0,42,43
 914 654 914 654 943 658 c 1,44,45
 919 788 919 788 877 996 c 1,38,39
EndSplineSet
EndChar

StartChar: B
Encoding: 66 66 34
Width: 1291
GlyphClass: 1
Flags: W
LayerCount: 2
Fore
SplineSet
884 39 m 0,0,1
 651 -48 651 -48 295 -48 c 0,2,3
 235 -48 235 -48 187.5 2 c 128,-1,4
 140 52 140 52 140 109 c 2,5,-1
 140 1169 l 2,6,7
 137 1237 137 1237 135 1305 c 0,8,9
 132 1382 132 1382 140 1435 c 0,10,11
 154 1529 154 1529 315 1549 c 1,12,13
 391 1571 391 1571 567 1571 c 0,14,15
 756 1571 756 1571 929 1449 c 0,16,17
 1132 1307 1132 1307 1132 1094 c 0,18,19
 1132 979 1132 979 1090 900 c 0,20,21
 1057 836 1057 836 975 763 c 1,22,23
 1072 716 1072 716 1147 621 c 0,24,25
 1232 515 1232 515 1232 410 c 0,26,27
 1232 277 1232 277 1087 158 c 0,28,29
 990 79 990 79 884 39 c 0,0,1
567 1300 m 0,30,31
 438 1300 438 1300 412 1298 c 1,32,-1
 413 1086 l 1,33,-1
 412 876 l 1,34,35
 503 865 503 865 549 869 c 0,36,37
 855 893 855 893 855 1094 c 0,38,39
 855 1165 855 1165 765 1231 c 0,40,41
 672 1300 672 1300 567 1300 c 0,30,31
684 593 m 1,42,43
 593 593 593 593 412 600 c 1,44,-1
 412 226 l 1,45,46
 584 235 584 235 785 292 c 0,47,48
 961 342 961 342 959 400 c 0,49,50
 956 477 956 477 846 537 c 0,51,52
 760 585 760 585 684 593 c 1,42,43
EndSplineSet
EndChar

StartChar: C
Encoding: 67 67 35
Width: 1267
GlyphClass: 1
Flags: W
LayerCount: 2
Fore
SplineSet
1104 1065 m 0,0,1
 1014 1065 1014 1065 971 1160 c 0,2,3
 951 1205 951 1205 931 1214 c 0,4,5
 916 1221 916 1221 852 1221 c 0,6,7
 726 1221 726 1221 561 1025 c 0,8,9
 330 751 330 751 330 512 c 0,10,11
 330 403 330 403 403 325 c 128,-1,12
 476 247 476 247 578 247 c 0,13,14
 677 247 677 247 779 299 c 0,15,16
 815 318 815 318 931 397 c 0,17,18
 1009 449 1009 449 1049 449 c 0,19,20
 1109 449 1109 449 1151 405 c 0,21,22
 1190 364 1190 364 1190 311 c 0,23,24
 1190 252 1190 252 1138 208 c 0,25,26
 863 -24 863 -24 578 -24 c 0,27,28
 353 -24 353 -24 198 140 c 0,29,30
 50 298 50 298 50 512 c 0,31,32
 50 847 50 847 343 1196 c 0,33,34
 592 1492 592 1492 852 1492 c 0,35,36
 896 1492 896 1492 931.5 1489 c 128,-1,37
 967 1486 967 1486 994 1480 c 1,38,39
 1038 1523 1038 1523 1100 1523 c 0,40,41
 1202 1523 1202 1523 1226 1406 c 0,42,43
 1243 1322 1243 1322 1243 1210 c 0,44,45
 1243 1160 1243 1160 1214 1119 c 0,46,47
 1176 1065 1176 1065 1104 1065 c 0,0,1
EndSplineSet
EndChar

StartChar: D
Encoding: 68 68 36
Width: 1478
GlyphClass: 1
Flags: W
LayerCount: 2
Fore
SplineSet
282 -10 m 1,0,1
 223 -9 223 -9 183 30.5 c 128,-1,2
 143 70 143 70 143 126 c 0,3,4
 143 226 143 226 152.5 426 c 128,-1,5
 162 626 162 626 162 726 c 0,6,7
 162 837 162 837 157.5 1059 c 128,-1,8
 153 1281 153 1281 153 1392 c 0,9,10
 153 1447 153 1447 206 1501.5 c 128,-1,11
 259 1556 259 1556 319 1556 c 0,12,13
 352 1556 352 1556 485 1494 c 0,14,15
 640 1420 640 1420 669 1411 c 0,16,17
 962 1316 962 1316 1169 1117 c 0,18,19
 1416 880 1416 880 1416 593 c 0,20,21
 1416 420 1416 420 1331 264 c 0,22,23
 1246 105 1246 105 1098 9 c 0,24,25
 932 -99 932 -99 631 -99 c 0,26,27
 558 -99 558 -99 463 -78 c 0,28,29
 348 -52 348 -52 282 -10 c 1,0,1
844 1018 m 0,30,31
 747 1079 747 1079 428 1210 c 1,32,-1
 428 220 l 1,33,34
 467 195 467 195 517.5 182.5 c 128,-1,35
 568 170 568 170 630 170 c 0,36,37
 846 170 846 170 940 230 c 0,38,39
 1029 287 1029 287 1081.5 385 c 128,-1,40
 1134 483 1134 483 1134 589 c 0,41,42
 1134 837 1134 837 844 1018 c 0,30,31
EndSplineSet
EndChar

StartChar: E
Encoding: 69 69 37
Width: 1279
GlyphClass: 1
Flags: W
LayerCount: 2
Fore
SplineSet
1109 1282 m 0,0,1
 1089 1282 1089 1282 1067 1288 c 0,2,3
 905 1332 905 1332 752 1332 c 0,4,5
 677 1332 677 1332 591 1320 c 128,-1,6
 505 1308 505 1308 408 1284 c 1,7,8
 408 1151 408 1151 399 889 c 1,9,10
 455 893 455 893 790 926 c 0,11,12
 981 945 981 945 1032 945 c 0,13,14
 1091 945 1091 945 1133 907.5 c 128,-1,15
 1175 870 1175 870 1175 808 c 0,16,17
 1175 689 1175 689 1048 673 c 1,18,19
 968 667 968 667 809 653 c 0,20,21
 667 637 667 637 381 614 c 1,22,23
 374 487 374 487 374 409 c 0,24,25
 374 213 374 213 397 186 c 0,26,27
 408 173 408 173 523 173 c 0,28,29
 585 173 585 173 710 176 c 128,-1,30
 835 179 835 179 897 179 c 0,31,32
 917 179 917 179 956 185 c 128,-1,33
 995 191 995 191 1014 191 c 0,34,35
 1072 191 1072 191 1113 158 c 0,36,37
 1160 121 1160 121 1160 54 c 0,38,39
 1160 -58 1160 -58 1043 -80 c 0,40,41
 943 -99 943 -99 628 -99 c 0,42,43
 302 -99 302 -99 203 -11 c 0,44,45
 94 86 94 86 94 409 c 0,46,47
 94 543 94 543 113.5 811.5 c 128,-1,48
 133 1080 133 1080 133 1213 c 0,49,50
 133 1248 133 1248 123 1316.5 c 128,-1,51
 113 1385 113 1385 113 1420 c 0,52,53
 113 1572 113 1572 253 1572 c 0,54,55
 297 1572 297 1572 334 1547 c 1,56,57
 450 1576 450 1576 554.5 1590.5 c 128,-1,58
 659 1605 659 1605 752 1605 c 0,59,60
 1004 1605 1004 1605 1155 1547 c 0,61,62
 1247 1512 1247 1512 1247 1420 c 0,63,64
 1247 1368 1247 1368 1211 1328 c 0,65,66
 1171 1282 1171 1282 1109 1282 c 0,0,1
EndSplineSet
EndChar

StartChar: F
Encoding: 70 70 38
Width: 1243
GlyphClass: 1
Flags: W
LayerCount: 2
Fore
SplineSet
1056 1250 m 0,0,1
 1033 1250 1033 1250 1005 1259 c 0,2,3
 876 1301 876 1301 690 1301 c 0,4,5
 629 1301 629 1301 549.5 1293 c 128,-1,6
 470 1285 470 1285 373 1269 c 1,7,8
 375 1077 375 1077 373 939 c 1,9,10
 525 976 525 976 625 976 c 0,11,12
 811 976 811 976 949 959 c 0,13,14
 1078 943 1078 943 1078 823 c 0,15,16
 1078 765 1078 765 1037 726 c 128,-1,17
 996 687 996 687 937 687 c 0,18,19
 885 687 885 687 781 695 c 128,-1,20
 677 703 677 703 625 703 c 0,21,22
 552 703 552 703 373 657 c 1,23,-1
 373 30 l 2,24,25
 373 -28 373 -28 327.5 -67 c 128,-1,26
 282 -106 282 -106 223 -106 c 0,27,28
 165 -106 165 -106 129 -67.5 c 128,-1,29
 93 -29 93 -29 93 30 c 2,30,-1
 93 1176 l 2,31,32
 93 1215 93 1215 94.5 1294 c 128,-1,33
 96 1373 96 1373 96 1412 c 0,34,35
 96 1471 96 1471 135.5 1510 c 128,-1,36
 175 1549 175 1549 235 1549 c 0,37,38
 273 1549 273 1549 302 1534 c 1,39,40
 418 1554 418 1554 515 1563.5 c 128,-1,41
 612 1573 612 1573 690 1573 c 0,42,43
 804 1573 804 1573 977 1526 c 0,44,45
 1194 1467 1194 1467 1194 1389 c 0,46,47
 1194 1332 1194 1332 1153.5 1291 c 128,-1,48
 1113 1250 1113 1250 1056 1250 c 0,0,1
EndSplineSet
EndChar

StartChar: G
Encoding: 71 71 39
Width: 1392
GlyphClass: 1
Flags: W
LayerCount: 2
Fore
SplineSet
1335 588 m 1,0,1
 1267 290 1267 290 1061 111 c 0,2,3
 852 -69 852 -69 571 -69 c 0,4,5
 305 -69 305 -69 172 71.5 c 128,-1,6
 39 212 39 212 39 493 c 0,7,8
 39 749 39 749 165 1018 c 128,-1,9
 291 1287 291 1287 489 1454 c 0,10,11
 628 1571 628 1571 787 1571 c 0,12,13
 884 1571 884 1571 1051 1501 c 0,14,15
 1249 1418 1249 1418 1249 1324 c 0,16,17
 1249 1270 1249 1270 1208 1227.5 c 128,-1,18
 1167 1185 1167 1185 1107 1185 c 0,19,20
 1077 1185 1077 1185 974.5 1241.5 c 128,-1,21
 872 1298 872 1298 787 1298 c 0,22,23
 697 1298 697 1298 544 1104 c 0,24,25
 321 822 321 822 321 493 c 0,26,27
 321 326 321 326 370 266 c 0,28,29
 422 203 422 203 571 203 c 0,30,31
 724 203 724 203 840 290 c 0,32,33
 963 382 963 382 1022 558 c 1,34,35
 790 540 790 540 618 463 c 0,36,37
 587 449 587 449 556 449 c 0,38,39
 494 449 494 449 453 495 c 0,40,41
 416 536 416 536 416 588 c 0,42,43
 416 741 416 741 778 802 c 0,44,45
 982 836 982 836 1254 836 c 0,46,47
 1314 836 1314 836 1354.5 797 c 128,-1,48
 1395 758 1395 758 1395 701 c 0,49,50
 1395 628 1395 628 1335 588 c 1,0,1
EndSplineSet
EndChar

StartChar: H
Encoding: 72 72 40
Width: 1573
GlyphClass: 1
Flags: W
LayerCount: 2
Fore
SplineSet
1501 1387 m 0,0,1
 1481 1314 1481 1314 1481 1260 c 0,2,3
 1481 1232 1481 1232 1475.5 1173.5 c 128,-1,4
 1470 1115 1470 1115 1470 1087 c 0,5,6
 1470 992 1470 992 1460 805 c 128,-1,7
 1450 618 1450 618 1450 523 c 0,8,9
 1450 450 1450 450 1461 305 c 128,-1,10
 1472 160 1472 160 1472 87 c 0,11,12
 1472 32 1472 32 1433 -6 c 128,-1,13
 1394 -44 1394 -44 1336 -44 c 0,14,15
 1277 -44 1277 -44 1234 -6.5 c 128,-1,16
 1191 31 1191 31 1191 85 c 0,17,18
 1191 158 1191 158 1184.5 304 c 128,-1,19
 1178 450 1178 450 1178 523 c 0,20,21
 1178 580 1178 580 1180 624 c 1,22,23
 1023 617 1023 617 792 575 c 0,24,25
 600 540 600 540 408 504 c 1,26,27
 406 436 406 436 394 277 c 0,28,29
 384 137 384 137 384 48 c 0,30,31
 384 -7 384 -7 345 -45 c 128,-1,32
 306 -83 306 -83 248 -83 c 256,33,34
 190 -83 190 -83 151 -45 c 128,-1,35
 112 -7 112 -7 112 48 c 0,36,37
 112 149 112 149 129.5 350 c 128,-1,38
 147 551 147 551 147 652 c 0,39,40
 147 780 147 780 153 1037.5 c 128,-1,41
 159 1295 159 1295 159 1423 c 0,42,43
 159 1478 159 1478 198 1516 c 128,-1,44
 237 1554 237 1554 295 1554 c 256,45,46
 353 1554 353 1554 392 1516 c 128,-1,47
 431 1478 431 1478 431 1423 c 0,48,49
 431 1347 431 1347 425.5 1194.5 c 128,-1,50
 420 1042 420 1042 420 966 c 0,51,52
 420 941 420 941 413 870 c 0,53,54
 407 804 407 804 408 769 c 1,55,-1
 792 841 l 2,56,57
 1017 881 1017 881 1180 887 c 1,58,59
 1184 954 1184 954 1193 1247 c 0,60,61
 1195 1324 1195 1324 1240 1424 c 0,62,63
 1296 1547 1296 1547 1367 1547 c 0,64,65
 1420 1547 1420 1547 1461 1512 c 0,66,67
 1505 1474 1505 1474 1505 1417 c 0,68,69
 1505 1402 1505 1402 1501 1387 c 0,0,1
EndSplineSet
EndChar

StartChar: I
Encoding: 73 73 41
Width: 1119
GlyphClass: 1
Flags: W
LayerCount: 2
Fore
SplineSet
957 1182 m 256,0,1
 905 1182 905 1182 672 1210 c 1,2,3
 658 1026 658 1026 658 721 c 2,4,-1
 657 272 l 1,5,6
 790 275 790 275 928 275 c 0,7,8
 988 275 988 275 1027.5 235 c 128,-1,9
 1067 195 1067 195 1067 139 c 256,10,11
 1067 83 1067 83 1027.5 43.5 c 128,-1,12
 988 4 988 4 928 4 c 0,13,14
 872 4 872 4 760 1.5 c 128,-1,15
 648 -1 648 -1 592 -1 c 0,16,17
 526 -1 526 -1 394 -18.5 c 128,-1,18
 262 -36 262 -36 196 -36 c 0,19,20
 136 -36 136 -36 96.5 3.5 c 128,-1,21
 57 43 57 43 57 99 c 256,22,23
 57 155 57 155 96.5 195 c 128,-1,24
 136 235 136 235 196 235 c 0,25,26
 264 235 264 235 375 250 c 1,27,28
 373 368 373 368 373 702 c 0,29,30
 373 974 373 974 393 1221 c 1,31,-1
 176 1215 l 2,32,33
 116 1215 116 1215 75.5 1254 c 128,-1,34
 35 1293 35 1293 35 1351 c 0,35,36
 35 1410 35 1410 75 1447 c 0,37,38
 112 1481 112 1481 166 1486 c 0,39,40
 254 1494 254 1494 472 1494 c 0,41,42
 668 1494 668 1494 977 1452 c 0,43,44
 1100 1435 1100 1435 1100 1314 c 0,45,46
 1100 1250 1100 1250 1050 1213 c 0,47,48
 1009 1182 1009 1182 957 1182 c 256,0,1
EndSplineSet
EndChar

StartChar: J
Encoding: 74 74 42
Width: 1362
GlyphClass: 1
Flags: W
LayerCount: 2
Fore
SplineSet
1197 1228 m 0,0,1
 1179 1228 1179 1228 1140 1231.5 c 128,-1,2
 1101 1235 1101 1235 1077 1235 c 2,3,-1
 999 1235 l 1,4,5
 998 1252 998 1252 998 1164 c 0,6,7
 998 448 998 448 897 121 c 0,8,9
 823 -120 823 -120 628 -120 c 0,10,11
 442 -120 442 -120 260 8 c 0,12,13
 54 151 54 151 54 344 c 0,14,15
 54 500 54 500 195 500 c 256,16,17
 336 500 336 500 336 346 c 0,18,19
 336 287 336 287 437.5 219.5 c 128,-1,20
 539 152 539 152 628 152 c 0,21,22
 664 152 664 152 680 285 c 0,23,24
 684 317 684 317 702 596 c 0,25,26
 717 824 717 824 717 1164 c 0,27,28
 717 1178 717 1178 714 1229 c 1,29,-1
 691 1228 l 2,30,31
 647 1226 647 1226 573 1229 c 0,32,33
 484 1233 484 1233 455 1233 c 0,34,35
 396 1233 396 1233 355 1269 c 0,36,37
 311 1308 311 1308 311 1370 c 0,38,39
 311 1506 311 1506 490 1506 c 0,40,41
 524 1506 524 1506 591 1503.5 c 128,-1,42
 658 1501 658 1501 691 1501 c 0,43,44
 754 1501 754 1501 879.5 1508 c 128,-1,45
 1005 1515 1005 1515 1068 1515 c 0,46,47
 1336 1515 1336 1515 1336 1366 c 0,48,49
 1336 1314 1336 1314 1300 1273 c 0,50,51
 1259 1228 1259 1228 1197 1228 c 0,0,1
EndSplineSet
EndChar

StartChar: K
Encoding: 75 75 43
Width: 1251
GlyphClass: 1
Flags: W
LayerCount: 2
Fore
SplineSet
395 443 m 1,0,-1
 394 22 l 2,1,2
 394 -22 394 -22 369 -59 c 0,3,4
 334 -110 334 -110 267 -110 c 0,5,6
 188 -110 188 -110 143 -46 c 0,7,8
 108 4 108 4 108 61 c 0,9,10
 108 283 108 283 122 728 c 128,-1,11
 136 1173 136 1173 136 1395 c 0,12,13
 136 1451 136 1451 176 1491 c 128,-1,14
 216 1531 216 1531 276 1531 c 256,15,16
 336 1531 336 1531 375.5 1491 c 128,-1,17
 415 1451 415 1451 415 1395 c 0,18,19
 415 1305 415 1305 406 1152 c 0,20,21
 395 974 395 974 393 909 c 1,22,23
 463 975 463 975 912 1465 c 0,24,25
 958 1515 958 1515 1018 1515 c 0,26,27
 1075 1515 1075 1515 1117.5 1475 c 128,-1,28
 1160 1435 1160 1435 1160 1378 c 0,29,30
 1160 1316 1160 1316 922 1056 c 0,31,32
 746 865 746 865 551 679 c 1,33,34
 660 576 660 576 770 473 c 0,35,36
 898 355 898 355 1000 279 c 0,37,38
 1051 242 1051 242 1110 223 c 0,39,40
 1217 189 1217 189 1217 92 c 0,41,42
 1217 49 1217 49 1190 9 c 0,43,44
 1153 -45 1153 -45 1087 -45 c 0,45,46
 944 -45 944 -45 716 142 c 0,47,48
 648 198 648 198 395 443 c 1,0,-1
EndSplineSet
EndChar

StartChar: L
Encoding: 76 76 44
Width: 1128
GlyphClass: 1
Flags: W
LayerCount: 2
Fore
SplineSet
1042 38 m 0,0,1
 924 -14 924 -14 677 -55 c 0,2,3
 451 -93 451 -93 306 -93 c 0,4,5
 61 -93 61 -93 61 122 c 1,6,7
 61 105 61 105 81 439 c 0,8,9
 107 873 107 873 107 1405 c 0,10,11
 107 1462 107 1462 146.5 1502 c 128,-1,12
 186 1542 186 1542 246 1542 c 256,13,14
 306 1542 306 1542 346 1502 c 128,-1,15
 386 1462 386 1462 386 1405 c 0,16,17
 386 872 386 872 359 423 c 1,18,19
 350 343 350 343 340 178 c 1,20,21
 577 182 577 182 948 294 c 0,22,23
 971 301 971 301 992 301 c 0,24,25
 1055 301 1055 301 1094 255 c 0,26,27
 1129 214 1129 214 1129 163 c 0,28,29
 1129 77 1129 77 1042 38 c 0,0,1
EndSplineSet
EndChar

StartChar: M
Encoding: 77 77 45
Width: 1808
GlyphClass: 1
Flags: W
LayerCount: 2
Fore
SplineSet
529 790 m 1,0,1
 484 628 484 628 403 301 c 1,2,3
 384 188 384 188 366 76 c 1,4,5
 325 -66 325 -66 215 -66 c 0,6,7
 146 -66 146 -66 106 -19 c 0,8,9
 72 21 72 21 72 76 c 0,10,11
 72 238 72 238 141 471 c 0,12,13
 244 820 244 820 252 858 c 0,14,15
 281 1012 281 1012 311 1166 c 0,16,17
 356 1378 356 1378 408.5 1448.5 c 128,-1,18
 461 1519 461 1519 541 1519 c 0,19,20
 632 1519 632 1519 675 1427 c 0,21,22
 715 1340 715 1340 761 1071 c 0,23,24
 805 810 805 810 892 509 c 1,25,26
 1006 806 1006 806 1104 1161 c 1,27,-1
 1160 1391 l 1,28,29
 1214 1534 1214 1534 1327 1534 c 0,30,31
 1436 1534 1436 1534 1489 1368 c 0,32,33
 1511 1301 1511 1301 1536 1118 c 0,34,35
 1594 692 1594 692 1682 388 c 0,36,37
 1771 79 1771 79 1771 52 c 0,38,39
 1771 -7 1771 -7 1724 -47 c 0,40,41
 1680 -83 1680 -83 1625 -83 c 0,42,43
 1516 -83 1516 -83 1463 73 c 1,44,-1
 1407 315 l 1,45,46
 1359 495 1359 495 1303 832 c 1,47,48
 1258 698 1258 698 1154 411 c 1,49,-1
 1094 227 l 2,50,51
 1057 118 1057 118 1017 48 c 0,52,53
 964 -45 964 -45 869 -45 c 0,54,55
 775 -45 775 -45 725 66 c 1,56,-1
 669 252 l 2,57,58
 591 508 591 508 529 790 c 1,0,1
EndSplineSet
EndChar

StartChar: N
Encoding: 78 78 46
Width: 1665
GlyphClass: 1
Flags: W
LayerCount: 2
Fore
SplineSet
1581 246 m 0,0,1
 1581 196 1581 196 1564 88 c 0,2,3
 1544 -41 1544 -41 1418 -41 c 0,4,5
 1348 -41 1348 -41 1260 38 c 0,6,7
 875 385 875 385 391 1011 c 1,8,9
 385 751 385 751 385 692 c 0,10,11
 385 613 385 613 388.5 454 c 128,-1,12
 392 295 392 295 392 216 c 0,13,14
 392 -79 392 -79 248 -79 c 0,15,16
 175 -79 175 -79 131 -34 c 0,17,18
 92 6 92 6 92 63 c 0,19,20
 92 103 92 103 98.5 184 c 128,-1,21
 105 265 105 265 105 305 c 0,22,23
 105 364 105 364 109 482 c 128,-1,24
 113 600 113 600 113 659 c 0,25,26
 113 722 113 722 110 849 c 128,-1,27
 107 976 107 976 107 1039 c 0,28,29
 107 1099 107 1099 95 1218 c 128,-1,30
 83 1337 83 1337 83 1397 c 256,31,32
 83 1457 83 1457 134.5 1504 c 128,-1,33
 186 1551 186 1551 252 1551 c 0,34,35
 326 1551 326 1551 416 1423 c 0,36,37
 870 775 870 775 1312 366 c 1,38,39
 1313 398 1313 398 1313 518 c 0,40,41
 1313 1011 1313 1011 1303 1183 c 0,42,43
 1301 1212 1301 1212 1290 1291 c 0,44,45
 1280 1361 1280 1361 1280 1401 c 0,46,47
 1280 1539 1280 1539 1426 1539 c 0,48,49
 1589 1539 1589 1539 1589 1036 c 0,50,51
 1589 1025 1589 1025 1587 878 c 0,52,53
 1581 370 1581 370 1581 246 c 0,0,1
EndSplineSet
EndChar

StartChar: O
Encoding: 79 79 47
Width: 1635
GlyphClass: 1
Flags: W
LayerCount: 2
Fore
SplineSet
786 -61 m 0,0,1
 490 -61 490 -61 282 109 c 0,2,3
 60 291 60 291 60 580 c 0,4,5
 60 920 60 920 273 1200 c 0,6,7
 512 1515 512 1515 875 1515 c 0,8,9
 1224 1515 1224 1515 1398 1355 c 128,-1,10
 1572 1195 1572 1195 1572 874 c 0,11,12
 1572 534 1572 534 1376 258 c 0,13,14
 1150 -61 1150 -61 786 -61 c 0,0,1
875 1244 m 0,15,16
 652 1244 652 1244 493 1028 c 0,17,18
 344 826 344 826 344 580 c 0,19,20
 344 414 344 414 473 310 c 0,21,22
 597 210 597 210 786 210 c 0,23,24
 1006 210 1006 210 1153 426 c 0,25,26
 1288 623 1288 623 1288 874 c 0,27,28
 1288 1084 1288 1084 1194 1166 c 0,29,30
 1104 1244 1104 1244 875 1244 c 0,15,16
EndSplineSet
EndChar

StartChar: P
Encoding: 80 80 48
Width: 1091
GlyphClass: 1
Flags: W
LayerCount: 2
Fore
SplineSet
413 558 m 0,0,1
 396 558 396 558 329 565 c 1,2,3
 323 425 323 425 323 105 c 0,4,5
 323 52 323 52 286 14 c 128,-1,6
 249 -24 249 -24 192 -24 c 256,7,8
 135 -24 135 -24 97.5 14 c 128,-1,9
 60 52 60 52 60 105 c 2,10,-1
 60 384 l 2,11,12
 60 539 60 539 80 843 c 0,13,14
 99 1152 99 1152 100 1304 c 0,15,16
 101 1564 101 1564 246 1553 c 1,17,18
 280 1562 280 1562 340 1566.5 c 128,-1,19
 400 1571 400 1571 486 1571 c 0,20,21
 682 1571 682 1571 854 1444 c 0,22,23
 1045 1302 1045 1302 1045 1098 c 0,24,25
 1045 842 1045 842 842 691 c 0,26,27
 662 558 662 558 413 558 c 0,0,1
463 1313 m 0,28,29
 431 1313 431 1313 406.5 1312.5 c 128,-1,30
 382 1312 382 1312 365 1310 c 1,31,32
 365 1263 365 1263 364 1169 c 0,33,34
 362 1058 362 1058 345 823 c 1,35,36
 396 815 396 815 413 815 c 0,37,38
 569 815 569 815 672 889 c 0,39,40
 782 968 782 968 782 1098 c 0,41,42
 782 1183 782 1183 679 1249 c 0,43,44
 580 1313 580 1313 463 1313 c 0,28,29
EndSplineSet
EndChar

StartChar: Q
Encoding: 81 81 49
Width: 1795
GlyphClass: 1
Flags: W
LayerCount: 2
Fore
SplineSet
1646 -438 m 0,0,1
 1573 -438 1573 -438 1161 -69 c 1,2,3
 995 -129 995 -129 835 -129 c 0,4,5
 517 -129 517 -129 275 115 c 0,6,7
 37 356 37 356 37 662 c 0,8,9
 37 1022 37 1022 316 1272 c 0,10,11
 587 1515 587 1515 958 1515 c 0,12,13
 1355 1515 1355 1515 1558 1229 c 0,14,15
 1729 988 1729 988 1729 611 c 0,16,17
 1729 298 1729 298 1428 73 c 1,18,19
 1488 19 1488 19 1609 -88 c 1,20,-1
 1723 -178 l 1,21,22
 1790 -240 1790 -240 1790 -298 c 0,23,24
 1790 -353 1790 -353 1749 -394 c 0,25,26
 1707 -438 1707 -438 1646 -438 c 0,0,1
958 1239 m 0,27,28
 699 1239 699 1239 513 1073 c 0,29,30
 322 905 322 905 322 662 c 0,31,32
 322 468 322 468 480.5 307.5 c 128,-1,33
 639 147 639 147 835 147 c 0,34,35
 861 147 861 147 891 150 c 1,36,37
 744 291 744 291 744 379 c 0,38,39
 744 439 744 439 790 479 c 0,40,41
 833 516 833 516 889 516 c 0,42,43
 957 516 957 516 1006 455 c 0,44,45
 1094 345 1094 345 1202 257 c 1,46,47
 1443 404 1443 404 1443 611 c 0,48,49
 1443 887 1443 887 1329 1053 c 0,50,51
 1201 1239 1201 1239 958 1239 c 0,27,28
EndSplineSet
EndChar

StartChar: R
Encoding: 82 82 50
Width: 1311
GlyphClass: 1
Flags: W
LayerCount: 2
Fore
SplineSet
1126 -12 m 0,0,1
 1072 -12 1072 -12 1027 30 c 0,2,3
 724 314 724 314 361 424 c 1,4,5
 372 133 372 133 372 101 c 0,6,7
 372 44 372 44 332 4.5 c 128,-1,8
 292 -35 292 -35 232 -35 c 256,9,10
 172 -35 172 -35 132 4.5 c 128,-1,11
 92 44 92 44 92 101 c 0,12,13
 92 176 92 176 94 325.5 c 128,-1,14
 96 475 96 475 96 550 c 2,15,-1
 98 1357 l 2,16,17
 98 1422 98 1422 137 1475 c 0,18,19
 188 1543 188 1543 278 1536 c 0,20,21
 521 1518 521 1518 527 1517 c 0,22,23
 667 1500 667 1500 765 1450 c 0,24,25
 1192 1235 1192 1235 1192 917 c 0,26,27
 1192 786 1192 786 1102.5 685.5 c 128,-1,28
 1013 585 1013 585 834 516 c 1,29,30
 1099 368 1099 368 1233 214 c 0,31,32
 1268 174 1268 174 1268 125 c 0,33,34
 1268 69 1268 69 1226 28.5 c 128,-1,35
 1184 -12 1184 -12 1126 -12 c 0,0,1
485 1246 m 0,36,37
 477 1247 477 1247 368 1254 c 1,38,-1
 368 723 l 1,39,40
 393 722 393 722 412 722 c 0,41,42
 657 722 657 722 775 783 c 0,43,44
 826 809 826 809 868.5 852 c 128,-1,45
 911 895 911 895 911 917 c 0,46,47
 911 1029 911 1029 769 1133 c 0,48,49
 634 1231 634 1231 485 1246 c 0,36,37
EndSplineSet
EndChar

StartChar: S
Encoding: 83 83 51
Width: 1420
GlyphClass: 1
Flags: W
LayerCount: 2
Fore
SplineSet
571 -61 m 0,0,1
 317 -61 317 -61 171 52 c 0,2,3
 48 146 48 146 48 269 c 0,4,5
 48 332 48 332 86 373.5 c 128,-1,6
 124 415 124 415 191 415 c 0,7,8
 281 415 281 415 323 323 c 0,9,10
 380 200 380 200 581 200 c 0,11,12
 753 200 753 200 914 275 c 0,13,14
 1081 352 1081 352 1081 444 c 0,15,16
 1081 570 1081 570 977 610 c 0,17,18
 903 639 903 639 680 644 c 0,19,20
 507 648 507 648 370 709 c 0,21,22
 185 792 185 792 188 947 c 0,23,24
 191 1142 191 1142 396 1304.5 c 128,-1,25
 601 1467 601 1467 848 1467 c 0,26,27
 946 1467 946 1467 1090 1422 c 0,28,29
 1269 1366 1269 1366 1269 1293 c 0,30,31
 1269 1241 1269 1241 1233 1201 c 0,32,33
 1193 1156 1193 1156 1130 1156 c 0,34,35
 1083 1156 1083 1156 989.5 1176 c 128,-1,36
 896 1196 896 1196 848 1196 c 0,37,38
 719 1195 719 1195 603 1134 c 0,39,40
 483 1072 483 1072 483 999 c 0,41,42
 483 961 483 961 519.5 936.5 c 128,-1,43
 556 912 556 912 629 902 c 1,44,45
 757 895 757 895 884 888 c 0,46,47
 1106 871 1106 871 1235 763 c 0,48,49
 1377 643 1377 643 1377 431 c 0,50,51
 1377 173 1377 173 1083 40 c 0,52,53
 859 -61 859 -61 571 -61 c 0,0,1
EndSplineSet
EndChar

StartChar: T
Encoding: 84 84 52
Width: 1425
GlyphClass: 1
Flags: W
LayerCount: 2
Fore
SplineSet
1296 1199 m 0,0,1
 1218 1199 1218 1199 1053 1210 c 0,2,3
 894 1221 894 1221 810 1220 c 1,4,5
 814 1106 814 1106 837 814 c 0,6,7
 858 556 858 556 858 406 c 0,8,9
 858 372 858 372 865 305 c 128,-1,10
 872 238 872 238 872 204 c 0,11,12
 872 129 872 129 840 69 c 0,13,14
 799 -8 799 -8 723 -8 c 0,15,16
 668 -8 668 -8 626 27 c 0,17,18
 579 66 579 66 579 125 c 0,19,20
 579 139 579 139 584 167.5 c 128,-1,21
 589 196 589 196 589 211 c 0,22,23
 589 257 589 257 582.5 350 c 128,-1,24
 576 443 576 443 576 490 c 0,25,26
 576 624 576 624 555 853 c 0,27,28
 531 1116 531 1116 527 1216 c 1,29,-1
 475 1216 l 2,30,31
 252 1216 252 1216 121 1248 c 0,32,33
 10 1275 10 1275 10 1379 c 0,34,35
 10 1430 10 1430 46 1471 c 0,36,37
 88 1520 88 1520 156 1515 c 0,38,39
 191 1513 191 1513 315 1498 c 0,40,41
 414 1487 414 1487 475 1487 c 256,42,43
 536 1487 536 1487 657.5 1489 c 128,-1,44
 779 1491 779 1491 840 1491 c 0,45,46
 916 1491 916 1491 1068 1480.5 c 128,-1,47
 1220 1470 1220 1470 1296 1470 c 0,48,49
 1356 1470 1356 1470 1396.5 1431 c 128,-1,50
 1437 1392 1437 1392 1437 1335 c 256,51,52
 1437 1278 1437 1278 1396.5 1238.5 c 128,-1,53
 1356 1199 1356 1199 1296 1199 c 0,0,1
EndSplineSet
EndChar

StartChar: U
Encoding: 85 85 53
Width: 1509
GlyphClass: 1
Flags: W
LayerCount: 2
Fore
SplineSet
1154 173 m 0,0,1
 1081 74 1081 74 978 8 c 0,2,3
 852 -72 852 -72 719 -72 c 0,4,5
 464 -72 464 -72 340 26 c 0,6,7
 78 233 78 233 78 745 c 0,8,9
 78 794 78 794 83 891 c 128,-1,10
 88 988 88 988 88 1037 c 0,11,12
 88 1076 88 1076 90 1153.5 c 128,-1,13
 92 1231 92 1231 92 1270 c 0,14,15
 92 1350 92 1350 121 1421 c 0,16,17
 160 1515 160 1515 230 1515 c 0,18,19
 285 1515 285 1515 327 1479 c 0,20,21
 373 1441 373 1441 373 1381 c 0,22,23
 373 1324 373 1324 371.5 1208.5 c 128,-1,24
 370 1093 370 1093 370 1035 c 0,25,26
 370 987 370 987 365 890 c 128,-1,27
 360 793 360 793 360 745 c 0,28,29
 360 590 360 590 396 457 c 0,30,31
 438 298 438 298 519 235 c 0,32,33
 561 202 561 202 719 200 c 0,34,35
 983 196 983 196 1075 650 c 0,36,37
 1123 885 1123 885 1123 1310 c 0,38,39
 1123 1366 1123 1366 1156 1418 c 0,40,41
 1201 1487 1201 1487 1284 1487 c 0,42,43
 1352 1487 1352 1487 1386 1437 c 0,44,45
 1412 1400 1412 1400 1412 1355 c 0,46,47
 1412 960 1412 960 1375 739 c 0,48,49
 1319 398 1319 398 1154 173 c 0,0,1
EndSplineSet
EndChar

StartChar: V
Encoding: 86 86 54
Width: 1382
GlyphClass: 1
Flags: W
LayerCount: 2
Fore
SplineSet
634 420 m 1,0,1
 785 800 785 800 868 1025 c 0,2,3
 912 1144 912 1144 955 1264 c 1,4,5
 1014 1406 1014 1406 1082 1483 c 0,6,7
 1127 1534 1127 1534 1190 1534 c 0,8,9
 1247 1534 1247 1534 1290 1494.5 c 128,-1,10
 1333 1455 1333 1455 1333 1398 c 0,11,12
 1333 1358 1333 1358 1306 1319 c 0,13,14
 1252 1241 1252 1241 1207 1131 c 0,15,16
 1205 1127 1205 1127 1133 933 c 0,17,18
 1043 702 1043 702 865 240 c 0,19,20
 819 119 819 119 752 -2 c 0,21,22
 709 -80 709 -80 627 -80 c 0,23,24
 523 -80 523 -80 482 18 c 0,25,26
 360 309 360 309 211 857 c 1,27,28
 170 992 170 992 128 1127 c 0,29,30
 72 1315 72 1315 72 1388 c 0,31,32
 72 1447 72 1447 116 1486 c 0,33,34
 158 1522 158 1522 214 1522 c 0,35,36
 310 1522 310 1522 348 1422 c 1,37,38
 368 1335 368 1335 388 1249 c 1,39,40
 421 1141 421 1141 483 925 c 0,41,42
 561 639 561 639 634 420 c 1,0,1
EndSplineSet
EndChar

StartChar: W
Encoding: 87 87 55
Width: 2129
GlyphClass: 1
Flags: W
LayerCount: 2
Fore
SplineSet
2052 1283 m 0,0,1
 2035 1242 2035 1242 2012 1182 c 1,2,3
 1995 1124 1995 1124 1957 1010 c 1,4,5
 1900 863 1900 863 1776 582 c 0,6,7
 1649 296 1649 296 1594 155 c 0,8,9
 1553 50 1553 50 1517 -13 c 0,10,11
 1470 -96 1470 -96 1374 -96 c 0,12,13
 1317 -96 1317 -96 1271 -65 c 0,14,15
 1217 -29 1217 -29 1213 30 c 1,16,17
 1167 145 1167 145 1155 218 c 0,18,19
 1111 432 1111 432 1033 861 c 1,20,21
 968 660 968 660 893 500 c 0,22,23
 781 260 781 260 746 123 c 1,24,25
 755 101 755 101 755 76 c 0,26,27
 755 14 755 14 700 -25 c 0,28,29
 652 -58 652 -58 594 -58 c 0,30,31
 521 -58 521 -58 473 -21 c 0,32,33
 421 20 421 20 419 91 c 1,34,-1
 388 208 l 1,35,36
 355 364 355 364 280 674 c 1,37,38
 214 911 214 911 59 1349 c 0,39,40
 50 1374 50 1374 50 1399 c 0,41,42
 50 1459 50 1459 96 1494 c 0,43,44
 137 1526 137 1526 195 1526 c 0,45,46
 271 1526 271 1526 316 1462 c 0,47,48
 341 1427 341 1427 373 1335 c 0,49,50
 471 1053 471 1053 594 513 c 1,51,52
 674 708 674 708 757 973 c 0,53,54
 824 1189 824 1189 866 1280 c 0,55,56
 966 1498 966 1498 1070 1498 c 0,57,58
 1168 1498 1168 1498 1213 1391 c 0,59,60
 1235 1340 1235 1340 1256 1206 c 0,61,62
 1262 1165 1262 1165 1282 1005 c 0,63,64
 1303 833 1303 833 1408 379 c 1,65,66
 1514 627 1514 627 1693 1094 c 0,67,68
 1704 1122 1704 1122 1745 1278 c 0,69,70
 1774 1390 1774 1390 1818 1455 c 0,71,72
 1866 1525 1866 1525 1946 1525 c 0,73,74
 2007 1525 2007 1525 2047 1487.5 c 128,-1,75
 2087 1450 2087 1450 2087 1391 c 0,76,77
 2087 1370 2087 1370 2052 1283 c 0,0,1
EndSplineSet
EndChar

StartChar: X
Encoding: 88 88 56
Width: 1482
GlyphClass: 1
Flags: W
LayerCount: 2
Fore
SplineSet
1393 1295 m 0,0,1
 1261 1144 1261 1144 1189 1043 c 0,2,3
 1113 932 1113 932 945 720 c 1,4,5
 1050 574 1050 574 1155 427 c 0,6,7
 1279 256 1279 256 1378 144 c 0,8,9
 1415 102 1415 102 1415 54 c 0,10,11
 1415 -2 1415 -2 1372.5 -43 c 128,-1,12
 1330 -84 1330 -84 1272 -84 c 0,13,14
 1173 -84 1173 -84 1013 144 c 0,15,16
 970 210 970 210 880 340 c 0,17,18
 838 398 838 398 753 513 c 1,19,20
 630 374 630 374 441 171 c 0,21,22
 381 103 381 103 256 -27 c 0,23,24
 212 -69 212 -69 155 -69 c 0,25,26
 97 -69 97 -69 54 -28.5 c 128,-1,27
 11 12 11 12 11 68 c 0,28,29
 11 116 11 116 46 156 c 0,30,31
 107 220 107 220 228 349 c 0,32,33
 360 491 360 491 581 739 c 1,34,35
 480 867 480 867 368 995 c 0,36,37
 359 1005 359 1005 254 1141 c 0,38,39
 185 1230 185 1230 127.5 1275.5 c 128,-1,40
 70 1321 70 1321 70 1383 c 0,41,42
 70 1436 70 1436 110.5 1478.5 c 128,-1,43
 151 1521 151 1521 212 1521 c 0,44,45
 266 1521 266 1521 354 1445 c 0,46,47
 418 1389 418 1389 460 1332.5 c 128,-1,48
 502 1276 502 1276 585 1170 c 1,49,50
 681 1061 681 1061 770 949 c 1,51,52
 896 1115 896 1115 1021 1281 c 1,53,54
 1215 1521 1215 1521 1286 1521 c 0,55,56
 1344 1521 1344 1521 1387 1480.5 c 128,-1,57
 1430 1440 1430 1440 1430 1384 c 0,58,59
 1430 1337 1430 1337 1393 1295 c 0,0,1
EndSplineSet
EndChar

StartChar: Y
Encoding: 89 89 57
Width: 1301
GlyphClass: 1
Flags: W
LayerCount: 2
Fore
SplineSet
1207 1234 m 0,0,1
 1156 1129 1156 1129 1002 780 c 0,2,3
 874 488 874 488 784 322 c 0,4,5
 628 34 628 34 617 17 c 0,6,7
 558 -70 558 -70 481 -70 c 0,8,9
 426 -70 426 -70 384 -34 c 0,10,11
 338 6 338 6 338 65 c 0,12,13
 338 114 338 114 547 477 c 1,14,15
 470 588 470 588 326 814 c 0,16,17
 218 980 218 980 9 1315 c 0,18,19
 -11 1349 -11 1349 -11 1386 c 0,20,21
 -11 1444 -11 1444 34 1484 c 0,22,23
 76 1521 76 1521 132 1521 c 0,24,25
 198 1521 198 1521 252 1454 c 1,26,-1
 327 1334 l 2,27,28
 334 1322 334 1322 499 1042 c 0,29,30
 603 863 603 863 683 759 c 1,31,32
 759 912 759 912 902 1222 c 0,33,34
 932 1291 932 1291 992 1431 c 0,35,36
 1030 1521 1030 1521 1122 1521 c 0,37,38
 1177 1521 1177 1521 1219 1485 c 0,39,40
 1265 1446 1265 1446 1265 1387 c 0,41,42
 1265 1353 1265 1353 1207 1234 c 0,0,1
EndSplineSet
EndChar

StartChar: Z
Encoding: 90 90 58
Width: 1420
GlyphClass: 1
Flags: W
LayerCount: 2
Fore
SplineSet
1274 1195 m 0,0,1
 1219 1161 1219 1161 1139 1108 c 1,2,3
 970 983 970 983 739 678 c 0,4,5
 562 440 562 440 385 201 c 1,6,-1
 381 196 l 1,7,8
 454 198 454 198 733 210 c 0,9,10
 952 220 952 220 1082 220 c 0,11,12
 1225 220 1225 220 1276 209 c 0,13,14
 1396 183 1396 183 1400 94 c 0,15,16
 1403 28 1403 28 1354 -10 c 0,17,18
 1312 -43 1312 -43 1253 -43 c 0,19,20
 1224 -43 1224 -43 1166 -39.5 c 128,-1,21
 1108 -36 1108 -36 1079 -36 c 0,22,23
 927 -36 927 -36 622.5 -43.5 c 128,-1,24
 318 -51 318 -51 166 -51 c 0,25,26
 101 -51 101 -51 59 -18 c 0,27,28
 12 18 12 18 12 83 c 0,29,30
 12 155 12 155 75 254 c 0,31,32
 95 285 95 285 188 405 c 0,33,34
 352 624 352 624 517 842 c 0,35,36
 713 1094 713 1094 884 1250 c 1,37,38
 728 1239 728 1239 646 1239 c 2,39,-1
 242 1239 l 2,40,41
 231 1239 231 1239 210 1237.5 c 128,-1,42
 189 1236 189 1236 178 1236 c 0,43,44
 119 1236 119 1236 78 1270 c 0,45,46
 32 1308 32 1308 32 1372 c 0,47,48
 32 1509 32 1509 235 1509 c 0,49,50
 304 1509 304 1509 441 1500.5 c 128,-1,51
 578 1492 578 1492 647 1492 c 0,52,53
 724 1492 724 1492 877.5 1496 c 128,-1,54
 1031 1500 1031 1500 1108 1500 c 0,55,56
 1406 1500 1406 1500 1406 1370 c 0,57,58
 1406 1287 1406 1287 1274 1195 c 0,0,1
EndSplineSet
EndChar

StartChar: bracketleft
Encoding: 91 91 59
Width: 771
GlyphClass: 1
Flags: W
LayerCount: 2
Fore
SplineSet
615 -417 m 0,0,1
 586 -417 586 -417 527.5 -414.5 c 128,-1,2
 469 -412 469 -412 440 -412 c 0,3,4
 417 -412 417 -412 372.5 -414.5 c 128,-1,5
 328 -417 328 -417 305 -417 c 0,6,7
 136 -417 136 -417 136 -266 c 0,8,9
 136 -86 136 -86 138.5 273 c 128,-1,10
 141 632 141 632 141 811 c 0,11,12
 141 908 141 908 138 1101 c 128,-1,13
 135 1294 135 1294 135 1391 c 0,14,15
 135 1446 135 1446 178 1483 c 128,-1,16
 221 1520 221 1520 277 1520 c 0,17,18
 311 1520 311 1520 380 1517.5 c 128,-1,19
 449 1515 449 1515 483 1515 c 0,20,21
 502 1515 502 1515 539.5 1517.5 c 128,-1,22
 577 1520 577 1520 596 1520 c 0,23,24
 655 1520 655 1520 691.5 1483.5 c 128,-1,25
 728 1447 728 1447 728 1388 c 0,26,27
 728 1251 728 1251 486 1251 c 0,28,29
 474 1251 474 1251 404 1253 c 1,30,-1
 404 -150 l 1,31,-1
 440 -149 l 2,32,33
 472 -148 472 -148 527 -151 c 0,34,35
 590 -154 590 -154 615 -154 c 0,36,37
 670 -154 670 -154 706 -192 c 128,-1,38
 742 -230 742 -230 742 -285 c 0,39,40
 742 -341 742 -341 706 -379 c 128,-1,41
 670 -417 670 -417 615 -417 c 0,0,1
EndSplineSet
EndChar

StartChar: backslash
Encoding: 92 92 60
Width: 1126
GlyphClass: 1
Flags: W
LayerCount: 2
Fore
SplineSet
920 -141 m 0,0,1
 846 -141 846 -141 805 -74 c 0,2,3
 767 -12 767 -12 686 170 c 1,4,5
 592 408 592 408 395 880 c 0,6,7
 331 1024 331 1024 158 1324 c 0,8,9
 137 1360 137 1360 137 1394 c 0,10,11
 137 1447 137 1447 178 1485.5 c 128,-1,12
 219 1524 219 1524 274 1524 c 0,13,14
 340 1524 340 1524 383 1463 c 0,15,16
 507 1286 507 1286 635 994 c 1,17,18
 737 746 737 746 839 499 c 0,19,20
 950 232 950 232 1039 50 c 0,21,22
 1055 17 1055 17 1055 -11 c 0,23,24
 1055 -64 1055 -64 1015 -102.5 c 128,-1,25
 975 -141 975 -141 920 -141 c 0,0,1
EndSplineSet
EndChar

StartChar: bracketright
Encoding: 93 93 61
Width: 771
GlyphClass: 1
Flags: W
LayerCount: 2
Fore
SplineSet
189 -417 m 0,0,1
 218 -417 218 -417 276.5 -414.5 c 128,-1,2
 335 -412 335 -412 364 -412 c 0,3,4
 387 -412 387 -412 431.5 -414.5 c 128,-1,5
 476 -417 476 -417 499 -417 c 0,6,7
 668 -417 668 -417 668 -266 c 0,8,9
 668 -86 668 -86 665.5 273 c 128,-1,10
 663 632 663 632 663 811 c 0,11,12
 663 908 663 908 666 1101 c 128,-1,13
 669 1294 669 1294 669 1391 c 0,14,15
 669 1446 669 1446 626 1483 c 128,-1,16
 583 1520 583 1520 527 1520 c 0,17,18
 493 1520 493 1520 424 1517.5 c 128,-1,19
 355 1515 355 1515 321 1515 c 0,20,21
 302 1515 302 1515 264.5 1517.5 c 128,-1,22
 227 1520 227 1520 208 1520 c 0,23,24
 149 1520 149 1520 112.5 1483.5 c 128,-1,25
 76 1447 76 1447 76 1388 c 0,26,27
 76 1251 76 1251 318 1251 c 0,28,29
 330 1251 330 1251 400 1253 c 1,30,-1
 400 -150 l 1,31,-1
 364 -149 l 2,32,33
 332 -148 332 -148 277 -151 c 0,34,35
 214 -154 214 -154 189 -154 c 0,36,37
 134 -154 134 -154 98 -192 c 128,-1,38
 62 -230 62 -230 62 -285 c 0,39,40
 62 -341 62 -341 98 -379 c 128,-1,41
 134 -417 134 -417 189 -417 c 0,0,1
EndSplineSet
EndChar

StartChar: asciicircum
Encoding: 94 94 62
Width: 1250
GlyphClass: 1
Flags: W
LayerCount: 2
Fore
SplineSet
943 1141 m 0,0,1
 894 1141 894 1141 852 1176 c 0,2,3
 781 1244 781 1244 634 1376 c 1,4,5
 392 1122 392 1122 303 1122 c 0,6,7
 250 1122 250 1122 211.5 1156.5 c 128,-1,8
 173 1191 173 1191 173 1236 c 0,9,10
 173 1282 173 1282 215 1317 c 0,11,12
 268 1362 268 1362 517 1607 c 0,13,14
 557 1646 557 1646 609 1646 c 0,15,16
 675 1646 675 1646 757 1586 c 0,17,18
 786 1565 786 1565 879 1480 c 0,19,20
 982 1385 982 1385 1038 1331 c 0,21,22
 1075 1295 1075 1295 1075 1255 c 0,23,24
 1075 1209 1075 1209 1035.5 1175 c 128,-1,25
 996 1141 996 1141 943 1141 c 0,0,1
EndSplineSet
EndChar

StartChar: underscore
Encoding: 95 95 63
Width: 1284
GlyphClass: 1
Flags: W
LayerCount: 2
Fore
SplineSet
-75 -345 m 1,0,-1
 -75 -159 l 1,1,-1
 1363 -159 l 1,2,-1
 1363 -345 l 1,3,-1
 -75 -345 l 1,0,-1
EndSplineSet
EndChar

StartChar: grave
Encoding: 96 96 64
Width: 1139
GlyphClass: 1
Flags: W
LayerCount: 2
Fore
SplineSet
484 1178 m 0,0,1
 420 1178 420 1178 379 1228 c 0,2,3
 331 1290 331 1290 283 1351 c 0,4,5
 229 1416 229 1416 164 1459 c 0,6,7
 109 1495 109 1495 109 1547 c 0,8,9
 109 1591 109 1591 146.5 1626 c 128,-1,10
 184 1661 184 1661 238 1661 c 0,11,12
 320 1661 320 1661 470 1506 c 0,13,14
 617 1355 617 1355 617 1288 c 0,15,16
 617 1242 617 1242 576.5 1210 c 128,-1,17
 536 1178 536 1178 484 1178 c 0,0,1
EndSplineSet
EndChar

StartChar: a
Encoding: 97 97 65
Width: 1138
GlyphClass: 1
Flags: W
LayerCount: 2
Fore
SplineSet
965 -66 m 0,0,1
 919 -66 919 -66 819 34 c 1,2,3
 727 -10 727 -10 657 -32.5 c 128,-1,4
 587 -55 587 -55 538 -55 c 0,5,6
 297 -55 297 -55 176.5 74 c 128,-1,7
 56 203 56 203 56 460 c 0,8,9
 56 701 56 701 234 872.5 c 128,-1,10
 412 1044 412 1044 660 1044 c 0,11,12
 755 1044 755 1044 880 990 c 0,13,14
 1031 925 1031 925 1031 839 c 0,15,16
 1031 803 1031 803 1008 776 c 1,17,18
 998 736 998 736 992.5 675.5 c 128,-1,19
 987 615 987 615 987 534 c 0,20,21
 987 343 987 343 1014 259 c 0,22,23
 1017 250 1017 250 1060 155 c 0,24,25
 1099 69 1099 69 1099 57 c 0,26,27
 1099 4 1099 4 1058.5 -31 c 128,-1,28
 1018 -66 1018 -66 965 -66 c 0,0,1
717 620 m 0,29,30
 717 652 717 652 721.5 693.5 c 128,-1,31
 726 735 726 735 735 786 c 1,32,33
 715 796 715 796 699.5 800.5 c 128,-1,34
 684 805 684 805 673 805 c 0,35,36
 537 805 537 805 435 698.5 c 128,-1,37
 333 592 333 592 333 452 c 0,38,39
 333 318 333 318 381 250.5 c 128,-1,40
 429 183 429 183 525 183 c 0,41,42
 587 183 587 183 642.5 203.5 c 128,-1,43
 698 224 698 224 747 264 c 1,44,45
 717 502 717 502 717 620 c 0,29,30
EndSplineSet
EndChar

StartChar: b
Encoding: 98 98 66
Width: 1215
GlyphClass: 1
Flags: W
LayerCount: 2
Fore
SplineSet
577 -42 m 0,0,1
 437 -42 437 -42 311 7 c 1,2,3
 274 -30 274 -30 221 -30 c 0,4,5
 167 -30 167 -30 128.5 6 c 128,-1,6
 90 42 90 42 90 96 c 0,7,8
 90 120 90 120 93 169.5 c 128,-1,9
 96 219 96 219 96 243 c 2,10,-1
 96 1376 l 2,11,12
 96 1448 96 1448 128 1504 c 0,13,14
 168 1575 168 1575 242 1575 c 0,15,16
 349 1575 349 1575 349 1459 c 0,17,18
 349 1446 349 1446 345.5 1417.5 c 128,-1,19
 342 1389 342 1389 342 1376 c 2,20,-1
 342 993 l 1,21,22
 416 1034 416 1034 484 1054.5 c 128,-1,23
 552 1075 552 1075 615 1075 c 0,24,25
 850 1075 850 1075 995 904 c 0,26,27
 1130 744 1130 744 1130 516 c 0,28,29
 1130 284 1130 284 973 123 c 0,30,31
 813 -42 813 -42 577 -42 c 0,0,1
615 819 m 0,32,33
 563 819 563 819 495 789 c 128,-1,34
 427 759 427 759 342 699 c 1,35,36
 341 604 341 604 342 274 c 1,37,38
 479 215 479 215 577 215 c 0,39,40
 704 215 704 215 786 300.5 c 128,-1,41
 868 386 868 386 868 516 c 256,42,43
 868 646 868 646 801 731 c 0,44,45
 731 819 731 819 615 819 c 0,32,33
EndSplineSet
EndChar

StartChar: c
Encoding: 99 99 67
Width: 1052
GlyphClass: 1
Flags: W
LayerCount: 2
Fore
SplineSet
562 -63 m 0,0,1
 342 -63 342 -63 193 62 c 0,2,3
 36 194 36 194 36 410 c 0,4,5
 36 609 36 609 177 821 c 0,6,7
 337 1063 337 1063 549 1063 c 0,8,9
 653 1063 653 1063 792 1007 c 0,10,11
 961 938 961 938 961 848 c 0,12,13
 961 799 961 799 927 761 c 0,14,15
 891 720 891 720 834 720 c 0,16,17
 791 720 791 720 730.5 766.5 c 128,-1,18
 670 813 670 813 549 813 c 0,19,20
 472 813 472 813 382 662 c 0,21,22
 296 516 296 516 296 410 c 0,23,24
 296 305 296 305 372 245 c 0,25,26
 444 188 444 188 562 188 c 0,27,28
 629 188 629 188 726 239 c 128,-1,29
 823 290 823 290 849 290 c 0,30,31
 903 290 903 290 941.5 251 c 128,-1,32
 980 212 980 212 980 162 c 0,33,34
 980 84 980 84 810 6 c 0,35,36
 658 -63 658 -63 562 -63 c 0,0,1
EndSplineSet
EndChar

StartChar: d
Encoding: 100 100 68
Width: 1203
GlyphClass: 1
Flags: W
LayerCount: 2
Fore
SplineSet
834 1005 m 1,0,1
 847 1346 847 1346 865 1476 c 0,2,3
 882 1594 882 1594 995 1594 c 0,4,5
 1054 1594 1054 1594 1090 1556 c 128,-1,6
 1126 1518 1126 1518 1126 1463 c 0,7,8
 1126 1318 1126 1318 1103.5 1031 c 128,-1,9
 1081 744 1081 744 1081 599 c 0,10,11
 1081 245 1081 245 1104 125 c 0,12,13
 1107 109 1107 109 1107 96 c 0,14,15
 1107 41 1107 41 1067 5.5 c 128,-1,16
 1027 -30 1027 -30 974 -30 c 0,17,18
 900 -30 900 -30 864 36 c 1,19,20
 796 -5 796 -5 723 -25.5 c 128,-1,21
 650 -46 650 -46 572 -46 c 0,22,23
 348 -46 348 -46 200 97 c 0,24,25
 49 243 49 243 49 469 c 0,26,27
 49 738 49 738 201 903.5 c 128,-1,28
 353 1069 353 1069 598 1069 c 0,29,30
 673 1069 673 1069 732 1053 c 128,-1,31
 791 1037 791 1037 834 1005 c 1,0,1
814 690 m 1,32,33
 781 753 781 753 728 784 c 128,-1,34
 675 815 675 815 602 815 c 0,35,36
 454 815 454 815 380 729.5 c 128,-1,37
 306 644 306 644 306 473 c 0,38,39
 306 365 306 365 386 288 c 128,-1,40
 466 211 466 211 572 211 c 0,41,42
 649 211 649 211 689 229 c 0,43,44
 716 241 716 241 781 293 c 0,45,46
 798 307 798 307 814 324 c 1,47,48
 812 372 812 372 814 690 c 1,32,33
EndSplineSet
EndChar

StartChar: e
Encoding: 101 101 69
Width: 1145
GlyphClass: 1
Flags: W
LayerCount: 2
Fore
SplineSet
606 -46 m 0,0,1
 367 -46 367 -46 215 68 c 0,2,3
 47 194 47 194 47 423 c 0,4,5
 47 676 47 676 180 851 c 0,6,7
 328 1045 328 1045 579 1045 c 0,8,9
 753 1045 753 1045 868 989 c 0,10,11
 1019 915 1019 915 1019 759 c 0,12,13
 1019 649 1019 649 896 564 c 0,14,15
 840 525 840 525 671 450 c 2,16,-1
 334 301 l 1,17,18
 382 249 382 249 450 223 c 128,-1,19
 518 197 518 197 606 197 c 0,20,21
 740 197 740 197 833 252 c 0,22,23
 916 301 916 301 966 301 c 0,24,25
 1070 301 1070 301 1070 200 c 0,26,27
 1070 86 1070 86 903 14 c 0,28,29
 763 -46 763 -46 606 -46 c 0,0,1
579 803 m 0,30,31
 486 803 486 803 420 741 c 128,-1,32
 354 679 354 679 314 555 c 1,33,34
 427 604 427 604 539 652 c 0,35,36
 674 713 674 713 754 765 c 1,37,38
 687 803 687 803 579 803 c 0,30,31
EndSplineSet
EndChar

StartChar: f
Encoding: 102 102 70
Width: 1041
GlyphClass: 1
Flags: W
LayerCount: 2
Fore
SplineSet
577 1027 m 1,0,1
 711 1039 711 1039 769 1039 c 0,2,3
 956 1039 956 1039 956 911 c 0,4,5
 956 779 956 779 757 785 c 0,6,7
 694 787 694 787 566 776 c 1,8,9
 562 670 562 670 564 506 c 0,10,11
 568 270 568 270 568 237 c 0,12,13
 568 54 568 54 545 -53 c 128,-1,14
 522 -160 522 -160 413 -160 c 0,15,16
 357 -160 357 -160 315.5 -124 c 128,-1,17
 274 -88 274 -88 274 -33 c 0,18,19
 274 -20 274 -20 276 -8 c 0,20,21
 300 135 300 135 300 261 c 2,22,-1
 300 761 l 1,23,24
 282 760 282 760 234 753 c 0,25,26
 196 748 196 748 176 748 c 0,27,28
 115 748 115 748 75 783.5 c 128,-1,29
 35 819 35 819 35 879 c 0,30,31
 35 972 35 972 133 1001 c 0,32,33
 177 1014 177 1014 308 1018 c 1,34,35
 309 1036 309 1036 321 1131 c 0,36,37
 349 1354 349 1354 442 1463 c 0,38,39
 558 1599 558 1599 798 1599 c 0,40,41
 981 1599 981 1599 981 1468 c 0,42,43
 981 1338 981 1338 811 1338 c 0,44,45
 690 1338 690 1338 635 1253 c 0,46,47
 594 1190 594 1190 580 1056 c 2,48,-1
 577 1027 l 1,0,1
EndSplineSet
EndChar

StartChar: g
Encoding: 103 103 71
Width: 1087
GlyphClass: 1
Flags: W
LayerCount: 2
Fore
SplineSet
1029 596 m 0,0,1
 987 361 987 361 979 100 c 0,2,3
 969 -223 969 -223 871 -369 c 0,4,5
 740 -564 740 -564 407 -564 c 0,6,7
 18 -564 18 -564 18 -410 c 0,8,9
 18 -355 18 -355 53 -321 c 128,-1,10
 88 -287 88 -287 145 -287 c 0,11,12
 190 -287 190 -287 274 -304 c 128,-1,13
 358 -321 358 -321 423 -321 c 0,14,15
 572 -321 572 -321 643 -230 c 0,16,17
 711 -141 711 -141 723 53 c 1,18,19
 672 1 672 1 608 -25 c 128,-1,20
 544 -51 544 -51 468 -51 c 0,21,22
 269 -51 269 -51 144.5 78.5 c 128,-1,23
 20 208 20 208 20 410 c 0,24,25
 20 682 20 682 186 850 c 0,26,27
 358 1024 358 1024 651 1024 c 0,28,29
 745 1024 745 1024 813 1001 c 128,-1,30
 881 978 881 978 923 931 c 1,31,32
 1050 916 1050 916 1050 781 c 0,33,34
 1050 714 1050 714 1029 596 c 0,0,1
641 796 m 0,35,36
 472 796 472 796 378 685 c 0,37,38
 294 584 294 584 294 423 c 0,39,40
 294 304 294 304 339 244 c 128,-1,41
 384 184 384 184 474 184 c 0,42,43
 556 184 556 184 639 279 c 0,44,45
 717 369 717 369 728 457 c 1,46,47
 747 553 747 553 772 756 c 1,48,49
 738 776 738 776 705 786 c 128,-1,50
 672 796 672 796 641 796 c 0,35,36
EndSplineSet
EndChar

StartChar: h
Encoding: 104 104 72
Width: 1183
GlyphClass: 1
Flags: W
LayerCount: 2
Fore
SplineSet
399 915 m 1,0,1
 472 987 472 987 555.5 1022.5 c 128,-1,2
 639 1058 639 1058 734 1058 c 0,3,4
 905 1058 905 1058 980 962 c 0,5,6
 1036 890 1036 890 1048 741 c 1,7,8
 1053 618 1053 618 1059 494 c 1,9,10
 1075 333 1075 333 1079 298 c 0,11,12
 1093 187 1093 187 1113 104 c 0,13,14
 1118 83 1118 83 1118 67 c 0,15,16
 1118 11 1118 11 1075.5 -25.5 c 128,-1,17
 1033 -62 1033 -62 976 -62 c 0,18,19
 875 -62 875 -62 845 38 c 0,20,21
 821 119 821 119 801 266 c 0,22,23
 783 407 783 407 783 498 c 0,24,25
 783 523 783 523 785.5 573.5 c 128,-1,26
 788 624 788 624 788 649 c 0,27,28
 788 723 788 723 786 735 c 0,29,30
 777 790 777 790 734 790 c 0,31,32
 623 790 623 790 533 688 c 0,33,34
 487 637 487 637 407 494 c 1,35,36
 407 132 407 132 372 58 c 0,37,38
 333 -24 333 -24 248 -24 c 0,39,40
 192 -24 192 -24 148.5 13.5 c 128,-1,41
 105 51 105 51 105 106 c 0,42,43
 105 125 105 125 116 159 c 0,44,45
 123 181 123 181 128 429 c 1,46,47
 123 630 123 630 130 1098 c 1,48,-1
 132 1131 l 2,49,50
 138 1249 138 1249 138 1289 c 0,51,52
 138 1320 138 1320 128.5 1380.5 c 128,-1,53
 119 1441 119 1441 119 1472 c 0,54,55
 119 1529 119 1529 160 1565.5 c 128,-1,56
 201 1602 201 1602 259 1602 c 0,57,58
 358 1602 358 1602 392 1496 c 0,59,60
 411 1436 411 1436 411 1312 c 0,61,62
 411 1212 411 1212 405 1109 c 0,63,64
 399 1011 399 1011 399 915 c 1,0,1
EndSplineSet
EndChar

StartChar: i
Encoding: 105 105 73
Width: 574
GlyphClass: 1
Flags: W
LayerCount: 2
Fore
SplineSet
330 1202 m 256,0,1
 266 1202 266 1202 219 1245 c 128,-1,2
 172 1288 172 1288 172 1350 c 256,3,4
 172 1412 172 1412 219 1455 c 128,-1,5
 266 1498 266 1498 330 1498 c 256,6,7
 394 1498 394 1498 440.5 1455 c 128,-1,8
 487 1412 487 1412 487 1350 c 256,9,10
 487 1288 487 1288 440.5 1245 c 128,-1,11
 394 1202 394 1202 330 1202 c 256,0,1
415 469 m 0,12,13
 415 412 415 412 418.5 286 c 128,-1,14
 422 160 422 160 422 103 c 0,15,16
 422 45 422 45 383 7.5 c 128,-1,17
 344 -30 344 -30 284 -30 c 256,18,19
 224 -30 224 -30 185 7.5 c 128,-1,20
 146 45 146 45 146 103 c 0,21,22
 146 160 146 160 142.5 286 c 128,-1,23
 139 412 139 412 139 469 c 0,24,25
 139 558 139 558 149 692 c 128,-1,26
 159 826 159 826 159 915 c 0,27,28
 159 973 159 973 198 1010.5 c 128,-1,29
 237 1048 237 1048 297 1048 c 256,30,31
 357 1048 357 1048 396 1010.5 c 128,-1,32
 435 973 435 973 435 915 c 0,33,34
 435 826 435 826 425 692 c 128,-1,35
 415 558 415 558 415 469 c 0,12,13
EndSplineSet
EndChar

StartChar: j
Encoding: 106 106 74
Width: 826
GlyphClass: 1
Flags: W
LayerCount: 2
Fore
SplineSet
467 1197 m 256,0,1
 403 1197 403 1197 356.5 1240 c 128,-1,2
 310 1283 310 1283 310 1346 c 256,3,4
 310 1409 310 1409 356.5 1452.5 c 128,-1,5
 403 1496 403 1496 467 1496 c 256,6,7
 531 1496 531 1496 578 1452.5 c 128,-1,8
 625 1409 625 1409 625 1346 c 256,9,10
 625 1283 625 1283 578 1240 c 128,-1,11
 531 1197 531 1197 467 1197 c 256,0,1
419 -187 m 1,12,13
 419 -82 419 -82 385 367 c 128,-1,14
 351 816 351 816 351 900 c 0,15,16
 351 960 351 960 386 1008 c 0,17,18
 427 1062 427 1062 492 1062 c 0,19,20
 538 1062 538 1062 584 1031 c 0,21,22
 634 997 634 997 636 953 c 0,23,24
 648 762 648 762 669 398 c 0,25,26
 696 -87 696 -87 696 -197 c 0,27,28
 696 -342 696 -342 605 -463 c 0,29,30
 504 -597 504 -597 354 -597 c 0,31,32
 112 -597 112 -597 -43 -255 c 0,33,34
 -58 -222 -58 -222 -58 -193 c 0,35,36
 -58 -138 -58 -138 -14 -98 c 0,37,38
 29 -61 29 -61 85 -61 c 0,39,40
 149 -61 149 -61 198 -130 c 1,41,42
 234 -194 234 -194 271 -259 c 0,43,44
 311 -328 311 -328 354 -328 c 0,45,46
 406 -328 406 -328 419 -187 c 1,12,13
EndSplineSet
EndChar

StartChar: k
Encoding: 107 107 75
Width: 1106
GlyphClass: 1
Flags: W
LayerCount: 2
Fore
SplineSet
943 -41 m 0,0,1
 864 -41 864 -41 823 35 c 0,2,3
 774 126 774 126 676 250 c 0,4,5
 524 443 524 443 515 455 c 1,6,7
 435 396 435 396 383 365 c 1,8,9
 373 226 373 226 373 99 c 0,10,11
 373 41 373 41 334 3 c 128,-1,12
 295 -35 295 -35 235 -35 c 0,13,14
 94 -35 94 -35 94 133 c 0,15,16
 94 212 94 212 105.5 369.5 c 128,-1,17
 117 527 117 527 117 606 c 0,18,19
 117 751 117 751 121.5 937.5 c 128,-1,20
 126 1124 126 1124 126 1267 c 0,21,22
 126 1310 126 1310 121.5 1368.5 c 128,-1,23
 117 1427 117 1427 117 1470 c 0,24,25
 117 1528 117 1528 156 1565.5 c 128,-1,26
 195 1603 195 1603 255 1603 c 256,27,28
 315 1603 315 1603 354 1565.5 c 128,-1,29
 393 1528 393 1528 393 1470 c 0,30,31
 393 1426 393 1426 398 1366 c 128,-1,32
 403 1306 403 1306 403 1262 c 0,33,34
 403 1143 403 1143 397 980 c 0,35,36
 391 824 391 824 392 702 c 1,37,38
 528 807 528 807 806 1084 c 0,39,40
 850 1128 850 1128 906 1128 c 256,41,42
 962 1128 962 1128 1005 1087 c 128,-1,43
 1048 1046 1048 1046 1048 992 c 0,44,45
 1048 946 1048 946 1009 903 c 0,46,47
 891 771 891 771 728 627 c 1,48,-1
 936 359 l 2,49,50
 1087 158 1087 158 1087 91 c 0,51,52
 1087 36 1087 36 1043 -2.5 c 128,-1,53
 999 -41 999 -41 943 -41 c 0,0,1
EndSplineSet
EndChar

StartChar: l
Encoding: 108 108 76
Width: 561
GlyphClass: 1
Flags: W
LayerCount: 2
Fore
SplineSet
410 147 m 2,0,1
 410 -43 410 -43 272 -43 c 0,2,3
 212 -43 212 -43 173 -5 c 128,-1,4
 134 33 134 33 134 93 c 2,5,-1
 134 1476 l 2,6,7
 134 1534 134 1534 176 1571 c 0,8,9
 216 1605 216 1605 275 1605 c 256,10,11
 334 1605 334 1605 372 1569.5 c 128,-1,12
 410 1534 410 1534 410 1476 c 2,13,-1
 410 147 l 2,0,1
EndSplineSet
EndChar

StartChar: m
Encoding: 109 109 77
Width: 1591
GlyphClass: 1
Flags: W
LayerCount: 2
Fore
SplineSet
361 885 m 1,0,1
 512 1060 512 1060 647 1060 c 0,2,3
 801 1060 801 1060 873 943 c 1,4,5
 934 997 934 997 1008 1024 c 128,-1,6
 1082 1051 1082 1051 1168 1051 c 0,7,8
 1364 1051 1364 1051 1434 856 c 0,9,10
 1448 816 1448 816 1477 585 c 1,11,12
 1505 423 1505 423 1549 45 c 0,13,14
 1553 -12 1553 -12 1510 -49 c 128,-1,15
 1467 -86 1467 -86 1409 -86 c 0,16,17
 1294 -86 1294 -86 1274 28 c 0,18,19
 1256 131 1256 131 1237 319 c 0,20,21
 1217 525 1217 525 1204 611 c 0,22,23
 1177 790 1177 790 1135 790 c 0,24,25
 1112 790 1112 790 1030 744 c 128,-1,26
 948 698 948 698 910 665 c 1,27,28
 910 551 910 551 937 337 c 0,29,30
 965 118 965 118 965 9 c 0,31,32
 965 -48 965 -48 926 -86 c 128,-1,33
 887 -124 887 -124 827 -124 c 256,34,35
 767 -124 767 -124 728 -86 c 128,-1,36
 689 -48 689 -48 689 9 c 0,37,38
 689 123 689 123 664.5 344.5 c 128,-1,39
 640 566 640 566 640 680 c 0,40,41
 640 744 640 744 629 782 c 1,42,43
 513 715 513 715 396 559 c 0,44,45
 391 552 391 552 379 538 c 1,46,47
 375 336 375 336 375 221 c 0,48,49
 375 193 375 193 373 145.5 c 128,-1,50
 371 98 371 98 371 75 c 0,51,52
 371 21 371 21 327 -10 c 0,53,54
 287 -39 287 -39 228 -39 c 0,55,56
 143 -39 143 -39 113 35 c 0,57,58
 92 85 92 85 92 194 c 2,59,-1
 92 566 l 2,60,61
 92 616 92 616 88 712.5 c 128,-1,62
 84 809 84 809 84 859 c 0,63,64
 84 948 84 948 116 1020 c 0,65,66
 155 1110 155 1110 226 1110 c 0,67,68
 282 1110 282 1110 326 1066.5 c 128,-1,69
 370 1023 370 1023 370 971 c 1,70,71
 370 992 370 992 361 885 c 1,0,1
EndSplineSet
EndChar

StartChar: n
Encoding: 110 110 78
Width: 1072
GlyphClass: 1
Flags: W
LayerCount: 2
Fore
SplineSet
890 -71 m 0,0,1
 767 -71 767 -71 753 50 c 0,2,3
 739 153 739 153 725 257 c 0,4,5
 710 367 710 367 710 464 c 0,6,7
 710 490 710 490 713.5 553 c 128,-1,8
 717 616 717 616 717 642 c 0,9,10
 717 649 717 649 719 677.5 c 128,-1,11
 721 706 721 706 721 724 c 0,12,13
 721 807 721 807 678 807 c 0,14,15
 586 807 586 807 497.5 699.5 c 128,-1,16
 409 592 409 592 359 427 c 1,17,18
 357 394 357 394 350 339 c 0,19,20
 344 294 344 294 344 251 c 0,21,22
 344 223 344 223 350.5 166.5 c 128,-1,23
 357 110 357 110 357 82 c 0,24,25
 357 25 357 25 317.5 -12.5 c 128,-1,26
 278 -50 278 -50 218 -50 c 256,27,28
 158 -50 158 -50 119 -12.5 c 128,-1,29
 80 25 80 25 80 82 c 0,30,31
 80 110 80 110 74 166.5 c 128,-1,32
 68 223 68 223 68 251 c 0,33,34
 68 347 68 347 82 518 c 128,-1,35
 96 689 96 689 96 785 c 0,36,37
 96 815 96 815 92.5 874.5 c 128,-1,38
 89 934 89 934 89 963 c 0,39,40
 89 1019 89 1019 129.5 1055.5 c 128,-1,41
 170 1092 170 1092 229 1092 c 0,42,43
 360 1092 360 1092 369 935 c 1,44,-1
 370 924 l 1,45,46
 516 1071 516 1071 678 1071 c 0,47,48
 867 1071 867 1071 939 913 c 0,49,50
 987 807 987 807 987 596 c 2,51,-1
 987 525 l 2,52,53
 986 479 986 479 986 460 c 0,54,55
 986 382 986 382 1007.5 259 c 128,-1,56
 1029 136 1029 136 1029 59 c 0,57,58
 1029 3 1029 3 989 -34 c 128,-1,59
 949 -71 949 -71 890 -71 c 0,0,1
EndSplineSet
EndChar

StartChar: o
Encoding: 111 111 79
Width: 1077
GlyphClass: 1
Flags: W
LayerCount: 2
Fore
SplineSet
514 -59 m 0,0,1
 329 -59 329 -59 196 68 c 0,2,3
 50 207 50 207 43 439 c 0,4,5
 36 660 36 660 164 833 c 0,6,7
 316 1037 316 1037 587 1037 c 0,8,9
 787 1037 787 1037 905 877 c 0,10,11
 1011 733 1011 733 1011 520 c 0,12,13
 1011 288 1011 288 887 124 c 0,14,15
 748 -59 748 -59 514 -59 c 0,0,1
574 773 m 0,16,17
 451 774 451 774 380 661 c 0,18,19
 320 566 320 566 320 439 c 0,20,21
 320 319 320 319 388 255 c 0,22,23
 442 204 442 204 514 204 c 0,24,25
 601 204 601 204 665 263 c 0,26,27
 738 332 738 332 743 450 c 0,28,29
 756 772 756 772 574 773 c 0,16,17
EndSplineSet
EndChar

StartChar: p
Encoding: 112 112 80
Width: 1095
GlyphClass: 1
Flags: W
LayerCount: 2
Fore
SplineSet
564 -59 m 0,0,1
 478 -59 478 -59 383 -39 c 1,2,-1
 382 -447 l 2,3,4
 382 -505 382 -505 343 -543 c 128,-1,5
 304 -581 304 -581 244 -581 c 256,6,7
 184 -581 184 -581 145 -543 c 128,-1,8
 106 -505 106 -505 106 -447 c 0,9,10
 106 -400 106 -400 108 -74 c 0,11,12
 110 168 110 168 108 321 c 0,13,14
 105 537 105 537 94 693 c 0,15,16
 79 908 79 908 79 890 c 1,17,18
 79 973 79 973 116 1032 c 0,19,20
 159 1099 159 1099 232 1099 c 0,21,22
 288 1099 288 1099 326 1061 c 128,-1,23
 364 1023 364 1023 364 970 c 1,24,-1
 363 960 l 1,25,26
 430 998 430 998 497.5 1016.5 c 128,-1,27
 565 1035 565 1035 633 1035 c 0,28,29
 863 1035 863 1035 969 840 c 0,30,31
 1048 693 1048 693 1048 459 c 0,32,33
 1048 240 1048 240 923 96 c 0,34,35
 789 -59 789 -59 564 -59 c 0,0,1
633 768 m 0,36,37
 570 768 570 768 505 738.5 c 128,-1,38
 440 709 440 709 374 650 c 1,39,40
 386 444 386 444 386 237 c 1,41,42
 475 208 475 208 564 208 c 0,43,44
 667 208 667 208 722 281 c 0,45,46
 772 347 772 347 772 459 c 0,47,48
 772 594 772 594 760 646 c 0,49,50
 731 768 731 768 633 768 c 0,36,37
EndSplineSet
EndChar

StartChar: q
Encoding: 113 113 81
Width: 1065
GlyphClass: 1
Flags: W
LayerCount: 2
Fore
SplineSet
949 309 m 1,0,1
 926 127 926 127 903 -56 c 0,2,3
 878 -258 878 -258 878 -422 c 0,4,5
 878 -480 878 -480 839 -518 c 128,-1,6
 800 -556 800 -556 740 -556 c 0,7,8
 602 -556 602 -556 602 -389 c 0,9,10
 602 -364 602 -364 605 -338 c 0,11,12
 614 -266 614 -266 633 -50 c 1,13,14
 592 -59 592 -59 558 -59 c 0,15,16
 326 -59 326 -59 179 57 c 0,17,18
 20 183 20 183 20 405 c 0,19,20
 20 699 20 699 195 879 c 0,21,22
 377 1064 377 1064 686 1063 c 0,23,24
 739 1063 739 1063 773 1036 c 1,25,26
 808 1058 808 1058 844 1058 c 0,27,28
 901 1058 901 1058 942 1016 c 128,-1,29
 983 974 983 974 983 920 c 0,30,31
 983 636 983 636 949 309 c 1,0,1
681 820 m 0,32,33
 631 825 631 825 621 823 c 0,34,35
 455 795 455 795 370 663 c 0,36,37
 300 553 300 553 300 402 c 0,38,39
 300 305 300 305 360 245 c 0,40,41
 428 179 428 179 550 182 c 0,42,43
 619 184 619 184 653 258 c 0,44,45
 698 356 698 356 701 606 c 0,46,47
 701 623 701 623 713 818 c 1,48,49
 700 818 700 818 681 820 c 0,32,33
EndSplineSet
EndChar

StartChar: r
Encoding: 114 114 82
Width: 984
GlyphClass: 1
Flags: W
LayerCount: 2
Fore
SplineSet
940 721 m 0,0,1
 931 568 931 568 801 568 c 0,2,3
 675 568 675 568 675 698 c 1,4,-1
 670 799 l 1,5,6
 445 763 445 763 348 568 c 1,7,-1
 349 65 l 2,8,9
 349 8 349 8 310 -29.5 c 128,-1,10
 271 -67 271 -67 211 -67 c 0,11,12
 149 -67 149 -67 115 -27 c 0,13,14
 83 9 83 9 83 65 c 2,15,-1
 83 720 l 2,16,17
 83 751 83 751 85 812.5 c 128,-1,18
 87 874 87 874 87 905 c 0,19,20
 87 961 87 961 120.5 998.5 c 128,-1,21
 154 1036 154 1036 216 1036 c 0,22,23
 327 1036 327 1036 348 922 c 1,24,25
 525 1054 525 1054 741 1054 c 0,26,27
 941 1054 941 1054 941 788 c 0,28,29
 941 737 941 737 940 721 c 0,0,1
EndSplineSet
EndChar

StartChar: s
Encoding: 115 115 83
Width: 997
GlyphClass: 1
Flags: W
LayerCount: 2
Fore
SplineSet
806 732 m 0,0,1
 707 732 707 732 687 815 c 1,2,3
 647 822 647 822 605 822 c 0,4,5
 364 822 364 822 364 756 c 0,6,7
 364 717 364 717 509 651 c 0,8,9
 707 560 707 560 777 509 c 0,10,11
 922 404 922 404 922 272 c 0,12,13
 922 100 922 100 762 11 c 0,14,15
 633 -60 633 -60 445 -60 c 0,16,17
 312 -60 312 -60 202 -19 c 0,18,19
 52 37 52 37 52 146 c 0,20,21
 52 246 52 246 171 246 c 0,22,23
 217 246 217 246 304 217 c 128,-1,24
 391 188 391 188 438 188 c 0,25,26
 641 188 641 188 642 270 c 0,27,28
 642 321 642 321 501 383 c 0,29,30
 295 474 295 474 237 514 c 0,31,32
 96 613 96 613 96 755 c 0,33,34
 96 956 96 956 309 1026 c 0,35,36
 434 1067 434 1067 689 1067 c 0,37,38
 789 1067 789 1067 837 1041 c 0,39,40
 903 1006 903 1006 903 912 c 0,41,42
 903 732 903 732 806 732 c 0,0,1
EndSplineSet
EndChar

StartChar: t
Encoding: 116 116 84
Width: 965
GlyphClass: 1
Flags: W
LayerCount: 2
Fore
SplineSet
808 805 m 0,0,1
 787 805 787 805 758.5 806.5 c 128,-1,2
 730 808 730 808 709 808 c 0,3,4
 668 808 668 808 614 800 c 1,5,6
 632 396 632 396 632 272 c 0,7,8
 632 259 632 259 633 223.5 c 128,-1,9
 634 188 634 188 634 166 c 0,10,11
 634 -64 634 -64 489 -64 c 0,12,13
 434 -64 434 -64 394 -30 c 0,14,15
 350 6 350 6 350 60 c 0,16,17
 350 96 350 96 353 168 c 128,-1,18
 356 240 356 240 356 276 c 0,19,20
 356 397 356 397 338 794 c 1,21,22
 276 797 276 797 150.5 810.5 c 128,-1,23
 25 824 25 824 25 940 c 0,24,25
 25 996 25 996 63 1035 c 128,-1,26
 101 1074 101 1074 161 1074 c 0,27,28
 198 1074 198 1074 331 1062 c 1,29,30
 330 1094 330 1094 326 1168 c 0,31,32
 322 1232 322 1232 322 1267 c 0,33,34
 322 1323 322 1323 363 1360 c 128,-1,35
 404 1397 404 1397 462 1397 c 0,36,37
 610 1397 610 1397 610 1148 c 1,38,-1
 608 1066 l 1,39,40
 670 1075 670 1075 709 1075 c 0,41,42
 824 1075 824 1075 866 1060 c 0,43,44
 946 1032 946 1032 946 938 c 0,45,46
 946 881 946 881 907 843 c 128,-1,47
 868 805 868 805 808 805 c 0,0,1
EndSplineSet
EndChar

StartChar: u
Encoding: 117 117 85
Width: 1065
GlyphClass: 1
Flags: W
LayerCount: 2
Fore
SplineSet
978 578 m 1,0,1
 978 511 978 511 979 376 c 128,-1,2
 980 241 980 241 980 174 c 0,3,4
 980 153 980 153 983.5 111.5 c 128,-1,5
 987 70 987 70 987 49 c 0,6,7
 987 -7 987 -7 946.5 -43.5 c 128,-1,8
 906 -80 906 -80 847 -80 c 0,9,10
 764 -80 764 -80 726 -5 c 1,11,12
 598 -52 598 -52 461 -52 c 0,13,14
 319 -52 319 -52 222 8 c 0,15,16
 113 77 113 77 92 209 c 0,17,18
 53 459 53 459 53 656 c 0,19,20
 53 786 53 786 83 953 c 0,21,22
 103 1066 103 1066 218 1066 c 0,23,24
 276 1066 276 1066 317 1029.5 c 128,-1,25
 358 993 358 993 358 937 c 0,26,27
 358 893 358 893 343.5 799 c 128,-1,28
 329 705 329 705 329 656 c 0,29,30
 329 515 329 515 338.5 409.5 c 128,-1,31
 348 304 348 304 367 235 c 1,32,33
 392 224 392 224 415.5 218 c 128,-1,34
 439 212 439 212 461 212 c 0,35,36
 572 212 572 212 705 244 c 1,37,38
 705 321 705 321 704 419 c 0,39,40
 702 536 702 536 702 587 c 0,41,42
 702 792 702 792 721 941 c 0,43,44
 736 1060 736 1060 857 1060 c 0,45,46
 916 1060 916 1060 958 1023 c 128,-1,47
 1000 986 1000 986 997 930 c 0,48,49
 978 549 978 549 978 578 c 1,0,1
EndSplineSet
EndChar

StartChar: v
Encoding: 118 118 86
Width: 996
GlyphClass: 1
Flags: W
LayerCount: 2
Fore
SplineSet
639 74 m 1,0,1
 634 24 634 24 598 -8 c 128,-1,2
 562 -40 562 -40 509 -40 c 0,3,4
 408 -40 408 -40 366 64 c 0,5,6
 258 334 258 334 35 870 c 0,7,8
 22 900 22 900 22 927 c 0,9,10
 22 981 22 981 65.5 1018.5 c 128,-1,11
 109 1056 109 1056 165 1056 c 0,12,13
 251 1056 251 1056 288 977 c 0,14,15
 345 856 345 856 510 411 c 1,16,17
 563 524 563 524 656 755 c 0,18,19
 684 832 684 832 743 970 c 1,20,21
 784 1050 784 1050 867 1050 c 0,22,23
 923 1050 923 1050 966.5 1013 c 128,-1,24
 1010 976 1010 976 1010 921 c 0,25,26
 1010 885 1010 885 848 525 c 0,27,28
 716 231 716 231 639 74 c 1,0,1
EndSplineSet
EndChar

StartChar: w
Encoding: 119 119 87
Width: 1401
GlyphClass: 1
Flags: W
LayerCount: 2
Fore
SplineSet
1381 881 m 0,0,1
 1276 489 1276 489 1170 169 c 0,2,3
 1140 79 1140 79 1072 -16 c 0,4,5
 1024 -82 1024 -82 944 -81 c 0,6,7
 818 -79 818 -79 746 162 c 0,8,9
 719 254 719 254 682 505 c 1,10,11
 661 461 661 461 656 446 c 0,12,13
 604 322 604 322 504 61 c 0,14,15
 489 19 489 19 459 -6 c 1,16,17
 417 -73 417 -73 334 -76 c 0,18,19
 287 -78 287 -78 235 8 c 0,20,21
 180 95 180 95 146 232 c 0,22,23
 115 356 115 356 50 772 c 0,24,25
 36 862 36 862 36 913 c 0,26,27
 36 968 36 968 77.5 1004.5 c 128,-1,28
 119 1041 119 1041 177 1041 c 0,29,30
 285 1041 285 1041 310 934 c 0,31,32
 323 878 323 878 332 796 c 0,33,34
 344 678 344 678 347 657 c 0,35,36
 360 579 360 579 387 402 c 1,37,38
 461 605 461 605 557 907 c 0,39,40
 598 1037 598 1037 711 1037 c 0,41,42
 822 1037 822 1037 857 892 c 0,43,44
 882 790 882 790 910 627 c 0,45,46
 951 390 951 390 960 345 c 1,47,48
 969 376 969 376 1117 953 c 0,49,50
 1139 1039 1139 1039 1242 1039 c 0,51,52
 1299 1039 1299 1039 1342.5 1002 c 128,-1,53
 1386 965 1386 965 1386 910 c 0,54,55
 1386 900 1386 900 1381 881 c 0,0,1
EndSplineSet
EndChar

StartChar: x
Encoding: 120 120 88
Width: 1209
GlyphClass: 1
Flags: W
LayerCount: 2
Fore
SplineSet
1087 811 m 1,0,1
 1030 762 1030 762 940 682 c 2,2,-1
 787 540 l 1,3,-1
 1092 167 l 2,4,5
 1125 126 1125 126 1125 86 c 0,6,7
 1125 34 1125 34 1083 -5 c 128,-1,8
 1041 -44 1041 -44 987 -44 c 0,9,10
 931 -44 931 -44 887 4 c 0,11,12
 797 102 797 102 590 357 c 1,13,14
 509 276 509 276 339 121 c 0,15,16
 285 76 285 76 257 46 c 0,17,18
 213 0 213 0 158 0 c 0,19,20
 104 0 104 0 62.5 39 c 128,-1,21
 21 78 21 78 21 130 c 0,22,23
 21 188 21 188 103 263 c 0,24,25
 169 320 169 320 235 376 c 1,26,27
 296 437 296 437 425 563 c 1,28,29
 369 641 369 641 312 719 c 0,30,31
 243 811 243 811 182 862 c 0,32,33
 130 905 130 905 130 959 c 0,34,35
 130 1011 130 1011 169.5 1051.5 c 128,-1,36
 209 1092 209 1092 264 1092 c 0,37,38
 335 1092 335 1092 460 949 c 1,39,-1
 620 743 l 1,40,41
 706 815 706 815 791 887 c 0,42,43
 897 979 897 979 943 1044 c 0,44,45
 986 1105 986 1105 1052 1105 c 0,46,47
 1106 1105 1106 1105 1148.5 1067 c 128,-1,48
 1191 1029 1191 1029 1191 977 c 0,49,50
 1191 912 1191 912 1087 811 c 1,0,1
EndSplineSet
EndChar

StartChar: y
Encoding: 121 121 89
Width: 1132
GlyphClass: 1
Flags: W
LayerCount: 2
Fore
SplineSet
1096 845 m 0,0,1
 987 618 987 618 751 132 c 0,2,3
 623 -129 623 -129 556 -301 c 0,4,5
 535 -363 535 -363 490 -485 c 0,6,7
 454 -579 454 -579 362 -579 c 0,8,9
 305 -579 305 -579 262 -542 c 128,-1,10
 219 -505 219 -505 219 -449 c 0,11,12
 219 -356 219 -356 431 102 c 1,13,14
 321 319 321 319 82 741 c 0,15,16
 58 779 58 779 33 818 c 0,17,18
 6 864 6 864 6 902 c 0,19,20
 6 956 6 956 49 997 c 128,-1,21
 92 1038 92 1038 148 1038 c 0,22,23
 214 1038 214 1038 251 989 c 0,24,25
 393 800 393 800 582 420 c 1,26,27
 689 657 689 657 712 706 c 0,28,29
 783 855 783 855 851 968 c 0,30,31
 894 1040 894 1040 969 1040 c 0,32,33
 1025 1040 1025 1040 1069 1002 c 128,-1,34
 1113 964 1113 964 1113 909 c 0,35,36
 1113 880 1113 880 1096 845 c 0,0,1
EndSplineSet
EndChar

StartChar: z
Encoding: 122 122 90
Width: 1102
GlyphClass: 1
Flags: W
LayerCount: 2
Fore
SplineSet
757 505 m 0,1,2
 590 279 590 279 549 227 c 1,3,4
 610 229 610 229 650 229 c 256,5,6
 690 229 690 229 766.5 214.5 c 128,-1,7
 843 200 843 200 882 200 c 0,8,9
 942 200 942 200 981.5 162.5 c 128,-1,10
 1021 125 1021 125 1021 68 c 256,11,12
 1021 11 1021 11 982 -26 c 128,-1,13
 943 -63 943 -63 882 -63 c 0,14,15
 842 -63 842 -63 765.5 -49 c 128,-1,16
 689 -35 689 -35 650 -35 c 0,17,18
 426 -35 426 -35 231 -72 c 0,19,20
 205 -77 205 -77 187 -77 c 0,21,22
 132 -77 132 -77 93 -47 c 0,23,24
 49 -14 49 -14 49 40 c 0,25,26
 49 104 49 104 112 157 c 0,27,28
 361 368 361 368 633 774 c 1,29,30
 571 771 571 771 514 771 c 0,31,32
 361 771 361 771 204 793 c 0,33,34
 81 810 81 810 81 923 c 0,35,36
 81 978 81 978 119 1017 c 128,-1,37
 157 1056 157 1056 216 1056 c 0,38,39
 265 1056 265 1056 364.5 1045.5 c 128,-1,40
 464 1035 464 1035 514 1035 c 0,41,42
 582 1035 582 1035 718 1043.5 c 128,-1,43
 854 1052 854 1052 922 1052 c 0,44,45
 1047 1052 1047 1052 1047 950 c 0,46,47
 1047 860 1047 860 962 764 c 128,-1,0
 877 668 877 668 757 505 c 0,1,2
EndSplineSet
EndChar

StartChar: braceleft
Encoding: 123 123 91
Width: 750
GlyphClass: 1
Flags: W
LayerCount: 2
Fore
SplineSet
613 1371 m 0,0,1
 585 1369 585 1369 530 1365 c 0,2,3
 425 1354 425 1354 425 1199 c 0,4,5
 425 1158 425 1158 431.5 1002.5 c 128,-1,6
 438 847 438 847 438 806 c 0,7,8
 438 750 438 750 404 681 c 0,9,10
 369 609 369 609 317 566 c 1,11,12
 422 428 422 428 422 340 c 0,13,14
 422 308 422 308 414 244.5 c 128,-1,15
 406 181 406 181 406 149 c 0,16,17
 406 72 406 72 431 -13 c 0,18,19
 465 -127 465 -127 523 -127 c 0,20,21
 619 -127 619 -127 656 -142 c 0,22,23
 719 -169 719 -169 719 -253 c 0,24,25
 719 -384 719 -384 523 -384 c 0,26,27
 337 -384 337 -384 227 -187 c 0,28,29
 139 -29 139 -29 139 149 c 0,30,31
 139 175 139 175 147 227.5 c 128,-1,32
 155 280 155 280 155 307 c 0,33,34
 155 367 155 367 60.5 430.5 c 128,-1,35
 -34 494 -34 494 -34 558 c 0,36,37
 -34 617 -34 617 41 691 c 0,38,39
 104 754 104 754 172 787 c 1,40,41
 173 830 173 830 168 979 c 0,42,43
 164 1137 164 1137 164 1171 c 0,44,45
 164 1501 164 1501 387 1594 c 0,46,47
 461 1625 461 1625 535 1625 c 0,48,49
 600 1625 600 1625 659 1595 c 0,50,51
 737 1554 737 1554 737 1480 c 0,52,53
 737 1388 737 1388 613 1371 c 0,0,1
EndSplineSet
EndChar

StartChar: bar
Encoding: 124 124 92
Width: 863
GlyphClass: 1
Flags: W
LayerCount: 2
Fore
SplineSet
444 -362 m 0,0,1
 313 -362 313 -362 311 -114 c 0,2,3
 311 -85 311 -85 312 -29.5 c 128,-1,4
 313 26 313 26 313 49 c 2,5,-1
 313 1591 l 2,6,7
 313 1645 313 1645 351.5 1680 c 128,-1,8
 390 1715 390 1715 445 1715 c 0,9,10
 501 1715 501 1715 536 1679.5 c 128,-1,11
 571 1644 571 1644 571 1591 c 2,12,-1
 571 -212 l 2,13,14
 570 -265 570 -265 544 -306 c 0,15,16
 509 -362 509 -362 444 -362 c 0,0,1
EndSplineSet
EndChar

StartChar: braceright
Encoding: 125 125 93
Width: 750
GlyphClass: 1
Flags: W
LayerCount: 2
Fore
SplineSet
695 471 m 1,0,1
 648 436 648 436 601 402 c 0,2,3
 547 359 547 359 547 307 c 0,4,5
 547 280 547 280 555.5 227.5 c 128,-1,6
 564 175 564 175 564 149 c 0,7,8
 564 -29 564 -29 476 -187 c 0,9,10
 366 -384 366 -384 180 -384 c 0,11,12
 -16 -384 -16 -384 -16 -253 c 0,13,14
 -16 -169 -16 -169 47 -142 c 0,15,16
 84 -127 84 -127 180 -127 c 0,17,18
 238 -127 238 -127 272 -13 c 0,19,20
 297 72 297 72 297 149 c 0,21,22
 297 181 297 181 289 244.5 c 128,-1,23
 281 308 281 308 281 340 c 0,24,25
 281 428 281 428 386 566 c 1,26,27
 334 609 334 609 299 681 c 0,28,29
 265 750 265 750 265 806 c 0,30,31
 265 847 265 847 271.5 1002.5 c 128,-1,32
 278 1158 278 1158 278 1199 c 0,33,34
 278 1354 278 1354 173 1365 c 0,35,36
 64 1376 64 1376 41 1384 c 0,37,38
 -34 1408 -34 1408 -34 1480 c 0,39,40
 -34 1554 -34 1554 44 1595 c 0,41,42
 103 1625 103 1625 168 1625 c 0,43,44
 242 1625 242 1625 316 1594 c 0,45,46
 539 1501 539 1501 539 1171 c 0,47,48
 539 1137 539 1137 535 980 c 0,49,50
 530 832 530 832 531 789 c 1,51,52
 599 756 599 756 662 692 c 0,53,54
 737 617 737 617 737 558 c 0,55,56
 737 511 737 511 695 471 c 1,0,1
EndSplineSet
EndChar

StartChar: asciitilde
Encoding: 126 126 94
Width: 1250
GlyphClass: 1
Flags: W
LayerCount: 2
Fore
SplineSet
855 467 m 0,0,1
 729 467 729 467 631 536 c 0,2,3
 579 572 579 572 475 688 c 2,4,-1
 453 713 l 1,5,6
 389 713 389 713 291 569 c 0,7,8
 250 509 250 509 179 509 c 0,9,10
 127 509 127 509 88 539 c 0,11,12
 46 571 46 571 46 617 c 0,13,14
 46 641 46 641 60 667 c 0,15,16
 117 774 117 774 210 846 c 0,17,18
 324 934 324 934 453 934 c 0,19,20
 551 934 551 934 628 873 c 0,21,22
 633 869 633 869 740 758 c 0,23,24
 802 695 802 695 861 691 c 0,25,26
 869 690 869 690 898 769 c 0,27,28
 946 899 946 899 1037 899 c 0,29,30
 1168 899 1168 899 1168 772 c 0,31,32
 1168 666 1168 666 1081 572 c 0,33,34
 986 467 986 467 855 467 c 0,0,1
EndSplineSet
EndChar
